G75*
%MOIN*%
%OFA0B0*%
%FSLAX25Y25*%
%IPPOS*%
%LPD*%
%AMOC8*
5,1,8,0,0,1.08239X$1,22.5*
%
%ADD10C,0.00400*%
D10*
X0080811Y0030185D02*
X0081578Y0029417D01*
X0083113Y0029417D01*
X0083880Y0030185D01*
X0083880Y0030952D01*
X0083113Y0031719D01*
X0081578Y0031719D01*
X0080811Y0030952D01*
X0080811Y0030185D01*
X0081578Y0031719D02*
X0080811Y0032487D01*
X0080811Y0033254D01*
X0081578Y0034021D01*
X0083113Y0034021D01*
X0083880Y0033254D01*
X0083880Y0032487D01*
X0083113Y0031719D01*
X0085415Y0029417D02*
X0088484Y0029417D01*
X0086950Y0029417D02*
X0086950Y0034021D01*
X0088484Y0032487D01*
X0090019Y0033254D02*
X0090786Y0034021D01*
X0092321Y0034021D01*
X0093088Y0033254D01*
X0093088Y0030185D01*
X0092321Y0029417D01*
X0090786Y0029417D01*
X0090019Y0030185D01*
X0107386Y0030185D02*
X0107386Y0033254D01*
X0108153Y0034021D01*
X0109688Y0034021D01*
X0110455Y0033254D01*
X0110455Y0032487D01*
X0109688Y0031719D01*
X0107386Y0031719D01*
X0107386Y0030185D02*
X0108153Y0029417D01*
X0109688Y0029417D01*
X0110455Y0030185D01*
X0111990Y0029417D02*
X0115059Y0029417D01*
X0113524Y0029417D02*
X0113524Y0034021D01*
X0115059Y0032487D01*
X0116594Y0033254D02*
X0117361Y0034021D01*
X0118896Y0034021D01*
X0119663Y0033254D01*
X0119663Y0030185D01*
X0118896Y0029417D01*
X0117361Y0029417D01*
X0116594Y0030185D01*
X0133961Y0043964D02*
X0134728Y0043197D01*
X0136263Y0043197D01*
X0137030Y0043964D01*
X0133961Y0047033D01*
X0133961Y0043964D01*
X0137030Y0043964D02*
X0137030Y0047033D01*
X0136263Y0047801D01*
X0134728Y0047801D01*
X0133961Y0047033D01*
X0138565Y0047033D02*
X0138565Y0046266D01*
X0141634Y0043197D01*
X0138565Y0043197D01*
X0143169Y0043964D02*
X0143936Y0043197D01*
X0145470Y0043197D01*
X0146238Y0043964D01*
X0146238Y0047033D01*
X0145470Y0047801D01*
X0143936Y0047801D01*
X0143169Y0047033D01*
X0141634Y0047033D02*
X0140867Y0047801D01*
X0139332Y0047801D01*
X0138565Y0047033D01*
X0112851Y0070744D02*
X0112084Y0069976D01*
X0110549Y0069976D01*
X0109782Y0070744D01*
X0108247Y0069976D02*
X0105178Y0069976D01*
X0106713Y0069976D02*
X0106713Y0074580D01*
X0108247Y0073046D01*
X0109782Y0073813D02*
X0110549Y0074580D01*
X0112084Y0074580D01*
X0112851Y0073813D01*
X0112851Y0070744D01*
X0103643Y0072278D02*
X0100574Y0072278D01*
X0101341Y0069976D02*
X0101341Y0074580D01*
X0103643Y0072278D01*
X0086276Y0070744D02*
X0085509Y0069976D01*
X0083974Y0069976D01*
X0083207Y0070744D01*
X0081672Y0069976D02*
X0078603Y0069976D01*
X0080138Y0069976D02*
X0080138Y0074580D01*
X0081672Y0073046D01*
X0083207Y0073813D02*
X0083974Y0074580D01*
X0085509Y0074580D01*
X0086276Y0073813D01*
X0086276Y0070744D01*
X0077069Y0070744D02*
X0076301Y0069976D01*
X0074767Y0069976D01*
X0073999Y0070744D01*
X0073999Y0072278D01*
X0074767Y0073046D01*
X0075534Y0073046D01*
X0077069Y0072278D01*
X0077069Y0074580D01*
X0073999Y0074580D01*
X0080795Y0084535D02*
X0083865Y0084535D01*
X0085399Y0084535D02*
X0088469Y0084535D01*
X0086934Y0084535D02*
X0086934Y0089139D01*
X0088469Y0087605D01*
X0090003Y0088372D02*
X0090770Y0089139D01*
X0092305Y0089139D01*
X0093072Y0088372D01*
X0093072Y0085303D01*
X0092305Y0084535D01*
X0090770Y0084535D01*
X0090003Y0085303D01*
X0083865Y0087605D02*
X0082330Y0089139D01*
X0082330Y0084535D01*
X0059702Y0084523D02*
X0058934Y0083756D01*
X0057400Y0083756D01*
X0056632Y0084523D01*
X0055098Y0083756D02*
X0052028Y0083756D01*
X0053563Y0083756D02*
X0053563Y0088360D01*
X0055098Y0086825D01*
X0056632Y0087593D02*
X0057400Y0088360D01*
X0058934Y0088360D01*
X0059702Y0087593D01*
X0059702Y0084523D01*
X0050494Y0084523D02*
X0049726Y0083756D01*
X0048192Y0083756D01*
X0047424Y0084523D01*
X0047424Y0085291D01*
X0048192Y0086058D01*
X0050494Y0086058D01*
X0050494Y0084523D01*
X0050494Y0086058D02*
X0048959Y0087593D01*
X0047424Y0088360D01*
X0055004Y0098315D02*
X0054236Y0099082D01*
X0054236Y0102152D01*
X0055004Y0102919D01*
X0056538Y0102919D01*
X0057306Y0102152D01*
X0057306Y0101384D01*
X0056538Y0100617D01*
X0054236Y0100617D01*
X0055004Y0098315D02*
X0056538Y0098315D01*
X0057306Y0099082D01*
X0058840Y0099082D02*
X0059607Y0098315D01*
X0061142Y0098315D01*
X0061909Y0099082D01*
X0061909Y0102152D01*
X0061142Y0102919D01*
X0059607Y0102919D01*
X0058840Y0102152D01*
X0081672Y0125094D02*
X0081672Y0125862D01*
X0078603Y0128931D01*
X0078603Y0129698D01*
X0081672Y0129698D01*
X0083207Y0128931D02*
X0083974Y0129698D01*
X0085509Y0129698D01*
X0086276Y0128931D01*
X0086276Y0125862D01*
X0085509Y0125094D01*
X0083974Y0125094D01*
X0083207Y0125862D01*
X0105178Y0125862D02*
X0105945Y0125094D01*
X0107480Y0125094D01*
X0108247Y0125862D01*
X0108247Y0127396D01*
X0105945Y0127396D01*
X0105178Y0126629D01*
X0105178Y0125862D01*
X0106713Y0128931D02*
X0108247Y0127396D01*
X0109782Y0125862D02*
X0110549Y0125094D01*
X0112084Y0125094D01*
X0112851Y0125862D01*
X0112851Y0128931D01*
X0112084Y0129698D01*
X0110549Y0129698D01*
X0109782Y0128931D01*
X0106713Y0128931D02*
X0105178Y0129698D01*
X0108153Y0140638D02*
X0107386Y0141405D01*
X0107386Y0142172D01*
X0108153Y0142940D01*
X0108920Y0142940D01*
X0108153Y0142940D02*
X0107386Y0143707D01*
X0107386Y0144474D01*
X0108153Y0145242D01*
X0109688Y0145242D01*
X0110455Y0144474D01*
X0111990Y0144474D02*
X0112757Y0145242D01*
X0114292Y0145242D01*
X0115059Y0144474D01*
X0115059Y0141405D01*
X0114292Y0140638D01*
X0112757Y0140638D01*
X0111990Y0141405D01*
X0110455Y0141405D02*
X0109688Y0140638D01*
X0108153Y0140638D01*
X0088484Y0141405D02*
X0087717Y0140638D01*
X0086182Y0140638D01*
X0085415Y0141405D01*
X0083880Y0140638D02*
X0080811Y0143707D01*
X0080811Y0144474D01*
X0081578Y0145242D01*
X0083113Y0145242D01*
X0083880Y0144474D01*
X0085415Y0144474D02*
X0086182Y0145242D01*
X0087717Y0145242D01*
X0088484Y0144474D01*
X0088484Y0141405D01*
X0083880Y0140638D02*
X0080811Y0140638D01*
X0059702Y0139641D02*
X0058934Y0138874D01*
X0057400Y0138874D01*
X0056632Y0139641D01*
X0055098Y0139641D02*
X0054330Y0138874D01*
X0052796Y0138874D01*
X0052028Y0139641D01*
X0052028Y0140409D01*
X0052796Y0141176D01*
X0054330Y0141176D01*
X0055098Y0141943D01*
X0055098Y0142711D01*
X0054330Y0143478D01*
X0052796Y0143478D01*
X0052028Y0142711D01*
X0052028Y0141943D01*
X0052796Y0141176D01*
X0054330Y0141176D02*
X0055098Y0140409D01*
X0055098Y0139641D01*
X0056632Y0142711D02*
X0057400Y0143478D01*
X0058934Y0143478D01*
X0059702Y0142711D01*
X0059702Y0139641D01*
X0059607Y0153433D02*
X0058840Y0154200D01*
X0059607Y0153433D02*
X0061142Y0153433D01*
X0061909Y0154200D01*
X0061909Y0157270D01*
X0061142Y0158037D01*
X0059607Y0158037D01*
X0058840Y0157270D01*
X0057306Y0156502D02*
X0055771Y0158037D01*
X0055771Y0153433D01*
X0057306Y0153433D02*
X0054236Y0153433D01*
X0131753Y0143478D02*
X0134822Y0143478D01*
X0134822Y0141176D01*
X0133287Y0141943D01*
X0132520Y0141943D01*
X0131753Y0141176D01*
X0131753Y0139641D01*
X0132520Y0138874D01*
X0134055Y0138874D01*
X0134822Y0139641D01*
X0136357Y0139641D02*
X0137124Y0138874D01*
X0138659Y0138874D01*
X0139426Y0139641D01*
X0139426Y0142711D01*
X0138659Y0143478D01*
X0137124Y0143478D01*
X0136357Y0142711D01*
X0134728Y0153433D02*
X0134728Y0158037D01*
X0137030Y0155735D01*
X0133961Y0155735D01*
X0138565Y0154200D02*
X0139332Y0153433D01*
X0140867Y0153433D01*
X0141634Y0154200D01*
X0141634Y0157270D01*
X0140867Y0158037D01*
X0139332Y0158037D01*
X0138565Y0157270D01*
X0140099Y0102919D02*
X0140099Y0098315D01*
X0138565Y0098315D02*
X0141634Y0098315D01*
X0143169Y0099082D02*
X0143936Y0098315D01*
X0145470Y0098315D01*
X0146238Y0099082D01*
X0146238Y0102152D01*
X0145470Y0102919D01*
X0143936Y0102919D01*
X0143169Y0102152D01*
X0141634Y0101384D02*
X0140099Y0102919D01*
X0137030Y0102152D02*
X0136263Y0102919D01*
X0134728Y0102919D01*
X0133961Y0102152D01*
X0137030Y0099082D01*
X0136263Y0098315D01*
X0134728Y0098315D01*
X0133961Y0099082D01*
X0133961Y0102152D01*
X0137030Y0102152D02*
X0137030Y0099082D01*
X0137124Y0088360D02*
X0138659Y0088360D01*
X0139426Y0087593D01*
X0139426Y0084523D01*
X0138659Y0083756D01*
X0137124Y0083756D01*
X0136357Y0084523D01*
X0134822Y0083756D02*
X0131753Y0083756D01*
X0133287Y0083756D02*
X0133287Y0088360D01*
X0134822Y0086825D01*
X0136357Y0087593D02*
X0137124Y0088360D01*
X0130218Y0087593D02*
X0129451Y0088360D01*
X0127916Y0088360D01*
X0127149Y0087593D01*
X0127149Y0086825D01*
X0127916Y0086058D01*
X0127149Y0085291D01*
X0127149Y0084523D01*
X0127916Y0083756D01*
X0129451Y0083756D01*
X0130218Y0084523D01*
X0128684Y0086058D02*
X0127916Y0086058D01*
X0119663Y0085303D02*
X0118896Y0084535D01*
X0117361Y0084535D01*
X0116594Y0085303D01*
X0115059Y0084535D02*
X0111990Y0084535D01*
X0113524Y0084535D02*
X0113524Y0089139D01*
X0115059Y0087605D01*
X0116594Y0088372D02*
X0117361Y0089139D01*
X0118896Y0089139D01*
X0119663Y0088372D01*
X0119663Y0085303D01*
X0110455Y0084535D02*
X0107386Y0087605D01*
X0107386Y0088372D01*
X0108153Y0089139D01*
X0109688Y0089139D01*
X0110455Y0088372D01*
X0110455Y0084535D02*
X0107386Y0084535D01*
X0066513Y0047033D02*
X0066513Y0043964D01*
X0065746Y0043197D01*
X0064211Y0043197D01*
X0063444Y0043964D01*
X0061909Y0043197D02*
X0058840Y0043197D01*
X0057306Y0043197D02*
X0057306Y0043964D01*
X0054236Y0047033D01*
X0054236Y0047801D01*
X0057306Y0047801D01*
X0060375Y0047801D02*
X0060375Y0043197D01*
X0061909Y0046266D02*
X0060375Y0047801D01*
X0063444Y0047033D02*
X0064211Y0047801D01*
X0065746Y0047801D01*
X0066513Y0047033D01*
M02*
