%
M48
M72
T01C0.0236
T02C0.0320
T03C0.0360
%
T01
X7456Y2667
X9156Y2667
X10106Y2667
X11806Y2667
X12756Y4017
X14456Y4017
X11319Y7830
X11756Y8167
X10619Y7830
X10119Y8180
X9169Y8180
X8619Y7830
X7969Y7830
X7456Y8217
X6456Y9067
X6456Y9567
X4869Y9580
X4856Y9067
X8669Y13180
X7969Y13230
X7456Y13717
X9106Y13717
X10106Y13717
X10619Y13280
X11319Y13280
X11806Y13667
X13269Y14530
X13969Y14530
X14456Y15017
X12806Y15017
X11106Y17867
X6456Y15067
X5969Y14630
X5319Y14630
X4846Y15087
X12769Y9580
X13269Y9180
X13969Y9180
X14369Y9580
X6469Y3930
X4819Y3930
T02
X8926Y17897
X10326Y17897
T03
X17254Y11523
X17254Y10523
X17254Y9523
X17254Y8523
X1900Y8523
X1900Y9523
X1900Y10523
X1900Y11523
M30
