G75*
%MOIN*%
%OFA0B0*%
%FSLAX25Y25*%
%IPPOS*%
%LPD*%
%AMOC8*
5,1,8,0,0,1.08239X$1,22.5*
%
%ADD10C,0.01014*%
D10*
X0072244Y0030398D02*
X0076780Y0030398D01*
X0072244Y0030398D02*
X0072244Y0033438D01*
X0076780Y0033438D01*
X0076780Y0030398D01*
X0076780Y0031411D02*
X0072244Y0031411D01*
X0072244Y0032424D02*
X0076780Y0032424D01*
X0076780Y0033437D02*
X0072244Y0033437D01*
X0072244Y0036697D02*
X0076780Y0036697D01*
X0072244Y0036697D02*
X0072244Y0039737D01*
X0076780Y0039737D01*
X0076780Y0036697D01*
X0076780Y0037710D02*
X0072244Y0037710D01*
X0072244Y0038723D02*
X0076780Y0038723D01*
X0076780Y0039736D02*
X0072244Y0039736D01*
X0072244Y0042997D02*
X0076780Y0042997D01*
X0072244Y0042997D02*
X0072244Y0046037D01*
X0076780Y0046037D01*
X0076780Y0042997D01*
X0076780Y0044010D02*
X0072244Y0044010D01*
X0072244Y0045023D02*
X0076780Y0045023D01*
X0076780Y0046036D02*
X0072244Y0046036D01*
X0067134Y0044178D02*
X0062598Y0044178D01*
X0062598Y0047218D01*
X0067134Y0047218D01*
X0067134Y0044178D01*
X0067134Y0045191D02*
X0062598Y0045191D01*
X0062598Y0046204D02*
X0067134Y0046204D01*
X0067134Y0047217D02*
X0062598Y0047217D01*
X0062598Y0050477D02*
X0067134Y0050477D01*
X0062598Y0050477D02*
X0062598Y0053517D01*
X0067134Y0053517D01*
X0067134Y0050477D01*
X0067134Y0051490D02*
X0062598Y0051490D01*
X0062598Y0052503D02*
X0067134Y0052503D01*
X0067134Y0053516D02*
X0062598Y0053516D01*
X0062598Y0056776D02*
X0067134Y0056776D01*
X0062598Y0056776D02*
X0062598Y0059816D01*
X0067134Y0059816D01*
X0067134Y0056776D01*
X0067134Y0057789D02*
X0062598Y0057789D01*
X0062598Y0058802D02*
X0067134Y0058802D01*
X0067134Y0059815D02*
X0062598Y0059815D01*
X0072244Y0060997D02*
X0076780Y0060997D01*
X0076780Y0057957D01*
X0072244Y0057957D01*
X0072244Y0060997D01*
X0072244Y0058970D02*
X0076780Y0058970D01*
X0076780Y0059983D02*
X0072244Y0059983D01*
X0072244Y0060996D02*
X0076780Y0060996D01*
X0076780Y0067296D02*
X0072244Y0067296D01*
X0076780Y0067296D02*
X0076780Y0064256D01*
X0072244Y0064256D01*
X0072244Y0067296D01*
X0072244Y0065269D02*
X0076780Y0065269D01*
X0076780Y0066282D02*
X0072244Y0066282D01*
X0072244Y0067295D02*
X0076780Y0067295D01*
X0076780Y0073596D02*
X0072244Y0073596D01*
X0076780Y0073596D02*
X0076780Y0070556D01*
X0072244Y0070556D01*
X0072244Y0073596D01*
X0072244Y0071569D02*
X0076780Y0071569D01*
X0076780Y0072582D02*
X0072244Y0072582D01*
X0072244Y0073595D02*
X0076780Y0073595D01*
X0067134Y0074777D02*
X0062598Y0074777D01*
X0067134Y0074777D02*
X0067134Y0071737D01*
X0062598Y0071737D01*
X0062598Y0074777D01*
X0062598Y0072750D02*
X0067134Y0072750D01*
X0067134Y0073763D02*
X0062598Y0073763D01*
X0062598Y0074776D02*
X0067134Y0074776D01*
X0067134Y0081076D02*
X0062598Y0081076D01*
X0067134Y0081076D02*
X0067134Y0078036D01*
X0062598Y0078036D01*
X0062598Y0081076D01*
X0062598Y0079049D02*
X0067134Y0079049D01*
X0067134Y0080062D02*
X0062598Y0080062D01*
X0062598Y0081075D02*
X0067134Y0081075D01*
X0067134Y0087375D02*
X0062598Y0087375D01*
X0067134Y0087375D02*
X0067134Y0084335D01*
X0062598Y0084335D01*
X0062598Y0087375D01*
X0062598Y0085348D02*
X0067134Y0085348D01*
X0067134Y0086361D02*
X0062598Y0086361D01*
X0062598Y0087374D02*
X0067134Y0087374D01*
X0072244Y0085516D02*
X0076780Y0085516D01*
X0072244Y0085516D02*
X0072244Y0088556D01*
X0076780Y0088556D01*
X0076780Y0085516D01*
X0076780Y0086529D02*
X0072244Y0086529D01*
X0072244Y0087542D02*
X0076780Y0087542D01*
X0076780Y0088555D02*
X0072244Y0088555D01*
X0072244Y0091815D02*
X0076780Y0091815D01*
X0072244Y0091815D02*
X0072244Y0094855D01*
X0076780Y0094855D01*
X0076780Y0091815D01*
X0076780Y0092828D02*
X0072244Y0092828D01*
X0072244Y0093841D02*
X0076780Y0093841D01*
X0076780Y0094854D02*
X0072244Y0094854D01*
X0072244Y0098115D02*
X0076780Y0098115D01*
X0072244Y0098115D02*
X0072244Y0101155D01*
X0076780Y0101155D01*
X0076780Y0098115D01*
X0076780Y0099128D02*
X0072244Y0099128D01*
X0072244Y0100141D02*
X0076780Y0100141D01*
X0076780Y0101154D02*
X0072244Y0101154D01*
X0067134Y0099296D02*
X0062598Y0099296D01*
X0062598Y0102336D01*
X0067134Y0102336D01*
X0067134Y0099296D01*
X0067134Y0100309D02*
X0062598Y0100309D01*
X0062598Y0101322D02*
X0067134Y0101322D01*
X0067134Y0102335D02*
X0062598Y0102335D01*
X0062598Y0105595D02*
X0067134Y0105595D01*
X0062598Y0105595D02*
X0062598Y0108635D01*
X0067134Y0108635D01*
X0067134Y0105595D01*
X0067134Y0106608D02*
X0062598Y0106608D01*
X0062598Y0107621D02*
X0067134Y0107621D01*
X0067134Y0108634D02*
X0062598Y0108634D01*
X0062598Y0111894D02*
X0067134Y0111894D01*
X0062598Y0111894D02*
X0062598Y0114934D01*
X0067134Y0114934D01*
X0067134Y0111894D01*
X0067134Y0112907D02*
X0062598Y0112907D01*
X0062598Y0113920D02*
X0067134Y0113920D01*
X0067134Y0114933D02*
X0062598Y0114933D01*
X0072244Y0116115D02*
X0076780Y0116115D01*
X0076780Y0113075D01*
X0072244Y0113075D01*
X0072244Y0116115D01*
X0072244Y0114088D02*
X0076780Y0114088D01*
X0076780Y0115101D02*
X0072244Y0115101D01*
X0072244Y0116114D02*
X0076780Y0116114D01*
X0076780Y0122414D02*
X0072244Y0122414D01*
X0076780Y0122414D02*
X0076780Y0119374D01*
X0072244Y0119374D01*
X0072244Y0122414D01*
X0072244Y0120387D02*
X0076780Y0120387D01*
X0076780Y0121400D02*
X0072244Y0121400D01*
X0072244Y0122413D02*
X0076780Y0122413D01*
X0076780Y0128714D02*
X0072244Y0128714D01*
X0076780Y0128714D02*
X0076780Y0125674D01*
X0072244Y0125674D01*
X0072244Y0128714D01*
X0072244Y0126687D02*
X0076780Y0126687D01*
X0076780Y0127700D02*
X0072244Y0127700D01*
X0072244Y0128713D02*
X0076780Y0128713D01*
X0067134Y0129895D02*
X0062598Y0129895D01*
X0067134Y0129895D02*
X0067134Y0126855D01*
X0062598Y0126855D01*
X0062598Y0129895D01*
X0062598Y0127868D02*
X0067134Y0127868D01*
X0067134Y0128881D02*
X0062598Y0128881D01*
X0062598Y0129894D02*
X0067134Y0129894D01*
X0067134Y0136194D02*
X0062598Y0136194D01*
X0067134Y0136194D02*
X0067134Y0133154D01*
X0062598Y0133154D01*
X0062598Y0136194D01*
X0062598Y0134167D02*
X0067134Y0134167D01*
X0067134Y0135180D02*
X0062598Y0135180D01*
X0062598Y0136193D02*
X0067134Y0136193D01*
X0067134Y0142493D02*
X0062598Y0142493D01*
X0067134Y0142493D02*
X0067134Y0139453D01*
X0062598Y0139453D01*
X0062598Y0142493D01*
X0062598Y0140466D02*
X0067134Y0140466D01*
X0067134Y0141479D02*
X0062598Y0141479D01*
X0062598Y0142492D02*
X0067134Y0142492D01*
X0072244Y0141619D02*
X0076780Y0141619D01*
X0072244Y0141619D02*
X0072244Y0144659D01*
X0076780Y0144659D01*
X0076780Y0141619D01*
X0076780Y0142632D02*
X0072244Y0142632D01*
X0072244Y0143645D02*
X0076780Y0143645D01*
X0076780Y0144658D02*
X0072244Y0144658D01*
X0072244Y0147918D02*
X0076780Y0147918D01*
X0072244Y0147918D02*
X0072244Y0150958D01*
X0076780Y0150958D01*
X0076780Y0147918D01*
X0076780Y0148931D02*
X0072244Y0148931D01*
X0072244Y0149944D02*
X0076780Y0149944D01*
X0076780Y0150957D02*
X0072244Y0150957D01*
X0072244Y0154217D02*
X0076780Y0154217D01*
X0072244Y0154217D02*
X0072244Y0157257D01*
X0076780Y0157257D01*
X0076780Y0154217D01*
X0076780Y0155230D02*
X0072244Y0155230D01*
X0072244Y0156243D02*
X0076780Y0156243D01*
X0076780Y0157256D02*
X0072244Y0157256D01*
X0067134Y0154414D02*
X0062598Y0154414D01*
X0062598Y0157454D01*
X0067134Y0157454D01*
X0067134Y0154414D01*
X0067134Y0155427D02*
X0062598Y0155427D01*
X0062598Y0156440D02*
X0067134Y0156440D01*
X0067134Y0157453D02*
X0062598Y0157453D01*
X0062598Y0160713D02*
X0067134Y0160713D01*
X0062598Y0160713D02*
X0062598Y0163753D01*
X0067134Y0163753D01*
X0067134Y0160713D01*
X0067134Y0161726D02*
X0062598Y0161726D01*
X0062598Y0162739D02*
X0067134Y0162739D01*
X0067134Y0163752D02*
X0062598Y0163752D01*
X0062598Y0167012D02*
X0067134Y0167012D01*
X0062598Y0167012D02*
X0062598Y0170052D01*
X0067134Y0170052D01*
X0067134Y0167012D01*
X0067134Y0168025D02*
X0062598Y0168025D01*
X0062598Y0169038D02*
X0067134Y0169038D01*
X0067134Y0170051D02*
X0062598Y0170051D01*
X0050205Y0167012D02*
X0045669Y0167012D01*
X0045669Y0170052D01*
X0050205Y0170052D01*
X0050205Y0167012D01*
X0050205Y0168025D02*
X0045669Y0168025D01*
X0045669Y0169038D02*
X0050205Y0169038D01*
X0050205Y0170051D02*
X0045669Y0170051D01*
X0045669Y0160713D02*
X0050205Y0160713D01*
X0045669Y0160713D02*
X0045669Y0163753D01*
X0050205Y0163753D01*
X0050205Y0160713D01*
X0050205Y0161726D02*
X0045669Y0161726D01*
X0045669Y0162739D02*
X0050205Y0162739D01*
X0050205Y0163752D02*
X0045669Y0163752D01*
X0045669Y0154414D02*
X0050205Y0154414D01*
X0045669Y0154414D02*
X0045669Y0157454D01*
X0050205Y0157454D01*
X0050205Y0154414D01*
X0050205Y0155427D02*
X0045669Y0155427D01*
X0045669Y0156440D02*
X0050205Y0156440D01*
X0050205Y0157453D02*
X0045669Y0157453D01*
X0045669Y0142493D02*
X0050205Y0142493D01*
X0050205Y0139453D01*
X0045669Y0139453D01*
X0045669Y0142493D01*
X0045669Y0140466D02*
X0050205Y0140466D01*
X0050205Y0141479D02*
X0045669Y0141479D01*
X0045669Y0142492D02*
X0050205Y0142492D01*
X0050205Y0136194D02*
X0045669Y0136194D01*
X0050205Y0136194D02*
X0050205Y0133154D01*
X0045669Y0133154D01*
X0045669Y0136194D01*
X0045669Y0134167D02*
X0050205Y0134167D01*
X0050205Y0135180D02*
X0045669Y0135180D01*
X0045669Y0136193D02*
X0050205Y0136193D01*
X0050205Y0129895D02*
X0045669Y0129895D01*
X0050205Y0129895D02*
X0050205Y0126855D01*
X0045669Y0126855D01*
X0045669Y0129895D01*
X0045669Y0127868D02*
X0050205Y0127868D01*
X0050205Y0128881D02*
X0045669Y0128881D01*
X0045669Y0129894D02*
X0050205Y0129894D01*
X0050205Y0111894D02*
X0045669Y0111894D01*
X0045669Y0114934D01*
X0050205Y0114934D01*
X0050205Y0111894D01*
X0050205Y0112907D02*
X0045669Y0112907D01*
X0045669Y0113920D02*
X0050205Y0113920D01*
X0050205Y0114933D02*
X0045669Y0114933D01*
X0045669Y0105595D02*
X0050205Y0105595D01*
X0045669Y0105595D02*
X0045669Y0108635D01*
X0050205Y0108635D01*
X0050205Y0105595D01*
X0050205Y0106608D02*
X0045669Y0106608D01*
X0045669Y0107621D02*
X0050205Y0107621D01*
X0050205Y0108634D02*
X0045669Y0108634D01*
X0045669Y0099296D02*
X0050205Y0099296D01*
X0045669Y0099296D02*
X0045669Y0102336D01*
X0050205Y0102336D01*
X0050205Y0099296D01*
X0050205Y0100309D02*
X0045669Y0100309D01*
X0045669Y0101322D02*
X0050205Y0101322D01*
X0050205Y0102335D02*
X0045669Y0102335D01*
X0045669Y0087375D02*
X0050205Y0087375D01*
X0050205Y0084335D01*
X0045669Y0084335D01*
X0045669Y0087375D01*
X0045669Y0085348D02*
X0050205Y0085348D01*
X0050205Y0086361D02*
X0045669Y0086361D01*
X0045669Y0087374D02*
X0050205Y0087374D01*
X0050205Y0081076D02*
X0045669Y0081076D01*
X0050205Y0081076D02*
X0050205Y0078036D01*
X0045669Y0078036D01*
X0045669Y0081076D01*
X0045669Y0079049D02*
X0050205Y0079049D01*
X0050205Y0080062D02*
X0045669Y0080062D01*
X0045669Y0081075D02*
X0050205Y0081075D01*
X0050205Y0074777D02*
X0045669Y0074777D01*
X0050205Y0074777D02*
X0050205Y0071737D01*
X0045669Y0071737D01*
X0045669Y0074777D01*
X0045669Y0072750D02*
X0050205Y0072750D01*
X0050205Y0073763D02*
X0045669Y0073763D01*
X0045669Y0074776D02*
X0050205Y0074776D01*
X0050205Y0056776D02*
X0045669Y0056776D01*
X0045669Y0059816D01*
X0050205Y0059816D01*
X0050205Y0056776D01*
X0050205Y0057789D02*
X0045669Y0057789D01*
X0045669Y0058802D02*
X0050205Y0058802D01*
X0050205Y0059815D02*
X0045669Y0059815D01*
X0045669Y0050477D02*
X0050205Y0050477D01*
X0045669Y0050477D02*
X0045669Y0053517D01*
X0050205Y0053517D01*
X0050205Y0050477D01*
X0050205Y0051490D02*
X0045669Y0051490D01*
X0045669Y0052503D02*
X0050205Y0052503D01*
X0050205Y0053516D02*
X0045669Y0053516D01*
X0045669Y0044178D02*
X0050205Y0044178D01*
X0045669Y0044178D02*
X0045669Y0047218D01*
X0050205Y0047218D01*
X0050205Y0044178D01*
X0050205Y0045191D02*
X0045669Y0045191D01*
X0045669Y0046204D02*
X0050205Y0046204D01*
X0050205Y0047217D02*
X0045669Y0047217D01*
X0089173Y0042997D02*
X0093709Y0042997D01*
X0089173Y0042997D02*
X0089173Y0046037D01*
X0093709Y0046037D01*
X0093709Y0042997D01*
X0093709Y0044010D02*
X0089173Y0044010D01*
X0089173Y0045023D02*
X0093709Y0045023D01*
X0093709Y0046036D02*
X0089173Y0046036D01*
X0098819Y0042997D02*
X0103355Y0042997D01*
X0098819Y0042997D02*
X0098819Y0046037D01*
X0103355Y0046037D01*
X0103355Y0042997D01*
X0103355Y0044010D02*
X0098819Y0044010D01*
X0098819Y0045023D02*
X0103355Y0045023D01*
X0103355Y0046036D02*
X0098819Y0046036D01*
X0098819Y0036697D02*
X0103355Y0036697D01*
X0098819Y0036697D02*
X0098819Y0039737D01*
X0103355Y0039737D01*
X0103355Y0036697D01*
X0103355Y0037710D02*
X0098819Y0037710D01*
X0098819Y0038723D02*
X0103355Y0038723D01*
X0103355Y0039736D02*
X0098819Y0039736D01*
X0093709Y0036697D02*
X0089173Y0036697D01*
X0089173Y0039737D01*
X0093709Y0039737D01*
X0093709Y0036697D01*
X0093709Y0037710D02*
X0089173Y0037710D01*
X0089173Y0038723D02*
X0093709Y0038723D01*
X0093709Y0039736D02*
X0089173Y0039736D01*
X0089173Y0030398D02*
X0093709Y0030398D01*
X0089173Y0030398D02*
X0089173Y0033438D01*
X0093709Y0033438D01*
X0093709Y0030398D01*
X0093709Y0031411D02*
X0089173Y0031411D01*
X0089173Y0032424D02*
X0093709Y0032424D01*
X0093709Y0033437D02*
X0089173Y0033437D01*
X0098819Y0030398D02*
X0103355Y0030398D01*
X0098819Y0030398D02*
X0098819Y0033438D01*
X0103355Y0033438D01*
X0103355Y0030398D01*
X0103355Y0031411D02*
X0098819Y0031411D01*
X0098819Y0032424D02*
X0103355Y0032424D01*
X0103355Y0033437D02*
X0098819Y0033437D01*
X0115748Y0030398D02*
X0120284Y0030398D01*
X0115748Y0030398D02*
X0115748Y0033438D01*
X0120284Y0033438D01*
X0120284Y0030398D01*
X0120284Y0031411D02*
X0115748Y0031411D01*
X0115748Y0032424D02*
X0120284Y0032424D01*
X0120284Y0033437D02*
X0115748Y0033437D01*
X0115748Y0036697D02*
X0120284Y0036697D01*
X0115748Y0036697D02*
X0115748Y0039737D01*
X0120284Y0039737D01*
X0120284Y0036697D01*
X0120284Y0037710D02*
X0115748Y0037710D01*
X0115748Y0038723D02*
X0120284Y0038723D01*
X0120284Y0039736D02*
X0115748Y0039736D01*
X0115748Y0042997D02*
X0120284Y0042997D01*
X0115748Y0042997D02*
X0115748Y0046037D01*
X0120284Y0046037D01*
X0120284Y0042997D01*
X0120284Y0044010D02*
X0115748Y0044010D01*
X0115748Y0045023D02*
X0120284Y0045023D01*
X0120284Y0046036D02*
X0115748Y0046036D01*
X0125393Y0044178D02*
X0129929Y0044178D01*
X0125393Y0044178D02*
X0125393Y0047218D01*
X0129929Y0047218D01*
X0129929Y0044178D01*
X0129929Y0045191D02*
X0125393Y0045191D01*
X0125393Y0046204D02*
X0129929Y0046204D01*
X0129929Y0047217D02*
X0125393Y0047217D01*
X0125393Y0050477D02*
X0129929Y0050477D01*
X0125393Y0050477D02*
X0125393Y0053517D01*
X0129929Y0053517D01*
X0129929Y0050477D01*
X0129929Y0051490D02*
X0125393Y0051490D01*
X0125393Y0052503D02*
X0129929Y0052503D01*
X0129929Y0053516D02*
X0125393Y0053516D01*
X0125393Y0056776D02*
X0129929Y0056776D01*
X0125393Y0056776D02*
X0125393Y0059816D01*
X0129929Y0059816D01*
X0129929Y0056776D01*
X0129929Y0057789D02*
X0125393Y0057789D01*
X0125393Y0058802D02*
X0129929Y0058802D01*
X0129929Y0059815D02*
X0125393Y0059815D01*
X0120284Y0060997D02*
X0115748Y0060997D01*
X0120284Y0060997D02*
X0120284Y0057957D01*
X0115748Y0057957D01*
X0115748Y0060997D01*
X0115748Y0058970D02*
X0120284Y0058970D01*
X0120284Y0059983D02*
X0115748Y0059983D01*
X0115748Y0060996D02*
X0120284Y0060996D01*
X0120284Y0067296D02*
X0115748Y0067296D01*
X0120284Y0067296D02*
X0120284Y0064256D01*
X0115748Y0064256D01*
X0115748Y0067296D01*
X0115748Y0065269D02*
X0120284Y0065269D01*
X0120284Y0066282D02*
X0115748Y0066282D01*
X0115748Y0067295D02*
X0120284Y0067295D01*
X0120284Y0073596D02*
X0115748Y0073596D01*
X0120284Y0073596D02*
X0120284Y0070556D01*
X0115748Y0070556D01*
X0115748Y0073596D01*
X0115748Y0071569D02*
X0120284Y0071569D01*
X0120284Y0072582D02*
X0115748Y0072582D01*
X0115748Y0073595D02*
X0120284Y0073595D01*
X0125393Y0074777D02*
X0129929Y0074777D01*
X0129929Y0071737D01*
X0125393Y0071737D01*
X0125393Y0074777D01*
X0125393Y0072750D02*
X0129929Y0072750D01*
X0129929Y0073763D02*
X0125393Y0073763D01*
X0125393Y0074776D02*
X0129929Y0074776D01*
X0129929Y0081076D02*
X0125393Y0081076D01*
X0129929Y0081076D02*
X0129929Y0078036D01*
X0125393Y0078036D01*
X0125393Y0081076D01*
X0125393Y0079049D02*
X0129929Y0079049D01*
X0129929Y0080062D02*
X0125393Y0080062D01*
X0125393Y0081075D02*
X0129929Y0081075D01*
X0129929Y0087375D02*
X0125393Y0087375D01*
X0129929Y0087375D02*
X0129929Y0084335D01*
X0125393Y0084335D01*
X0125393Y0087375D01*
X0125393Y0085348D02*
X0129929Y0085348D01*
X0129929Y0086361D02*
X0125393Y0086361D01*
X0125393Y0087374D02*
X0129929Y0087374D01*
X0120284Y0085516D02*
X0115748Y0085516D01*
X0115748Y0088556D01*
X0120284Y0088556D01*
X0120284Y0085516D01*
X0120284Y0086529D02*
X0115748Y0086529D01*
X0115748Y0087542D02*
X0120284Y0087542D01*
X0120284Y0088555D02*
X0115748Y0088555D01*
X0115748Y0091815D02*
X0120284Y0091815D01*
X0115748Y0091815D02*
X0115748Y0094855D01*
X0120284Y0094855D01*
X0120284Y0091815D01*
X0120284Y0092828D02*
X0115748Y0092828D01*
X0115748Y0093841D02*
X0120284Y0093841D01*
X0120284Y0094854D02*
X0115748Y0094854D01*
X0115748Y0098115D02*
X0120284Y0098115D01*
X0115748Y0098115D02*
X0115748Y0101155D01*
X0120284Y0101155D01*
X0120284Y0098115D01*
X0120284Y0099128D02*
X0115748Y0099128D01*
X0115748Y0100141D02*
X0120284Y0100141D01*
X0120284Y0101154D02*
X0115748Y0101154D01*
X0125393Y0099296D02*
X0129929Y0099296D01*
X0125393Y0099296D02*
X0125393Y0102336D01*
X0129929Y0102336D01*
X0129929Y0099296D01*
X0129929Y0100309D02*
X0125393Y0100309D01*
X0125393Y0101322D02*
X0129929Y0101322D01*
X0129929Y0102335D02*
X0125393Y0102335D01*
X0125393Y0105595D02*
X0129929Y0105595D01*
X0125393Y0105595D02*
X0125393Y0108635D01*
X0129929Y0108635D01*
X0129929Y0105595D01*
X0129929Y0106608D02*
X0125393Y0106608D01*
X0125393Y0107621D02*
X0129929Y0107621D01*
X0129929Y0108634D02*
X0125393Y0108634D01*
X0125393Y0111894D02*
X0129929Y0111894D01*
X0125393Y0111894D02*
X0125393Y0114934D01*
X0129929Y0114934D01*
X0129929Y0111894D01*
X0129929Y0112907D02*
X0125393Y0112907D01*
X0125393Y0113920D02*
X0129929Y0113920D01*
X0129929Y0114933D02*
X0125393Y0114933D01*
X0120284Y0116115D02*
X0115748Y0116115D01*
X0120284Y0116115D02*
X0120284Y0113075D01*
X0115748Y0113075D01*
X0115748Y0116115D01*
X0115748Y0114088D02*
X0120284Y0114088D01*
X0120284Y0115101D02*
X0115748Y0115101D01*
X0115748Y0116114D02*
X0120284Y0116114D01*
X0120284Y0122414D02*
X0115748Y0122414D01*
X0120284Y0122414D02*
X0120284Y0119374D01*
X0115748Y0119374D01*
X0115748Y0122414D01*
X0115748Y0120387D02*
X0120284Y0120387D01*
X0120284Y0121400D02*
X0115748Y0121400D01*
X0115748Y0122413D02*
X0120284Y0122413D01*
X0120284Y0128714D02*
X0115748Y0128714D01*
X0120284Y0128714D02*
X0120284Y0125674D01*
X0115748Y0125674D01*
X0115748Y0128714D01*
X0115748Y0126687D02*
X0120284Y0126687D01*
X0120284Y0127700D02*
X0115748Y0127700D01*
X0115748Y0128713D02*
X0120284Y0128713D01*
X0125393Y0129895D02*
X0129929Y0129895D01*
X0129929Y0126855D01*
X0125393Y0126855D01*
X0125393Y0129895D01*
X0125393Y0127868D02*
X0129929Y0127868D01*
X0129929Y0128881D02*
X0125393Y0128881D01*
X0125393Y0129894D02*
X0129929Y0129894D01*
X0129929Y0136194D02*
X0125393Y0136194D01*
X0129929Y0136194D02*
X0129929Y0133154D01*
X0125393Y0133154D01*
X0125393Y0136194D01*
X0125393Y0134167D02*
X0129929Y0134167D01*
X0129929Y0135180D02*
X0125393Y0135180D01*
X0125393Y0136193D02*
X0129929Y0136193D01*
X0129929Y0142493D02*
X0125393Y0142493D01*
X0129929Y0142493D02*
X0129929Y0139453D01*
X0125393Y0139453D01*
X0125393Y0142493D01*
X0125393Y0140466D02*
X0129929Y0140466D01*
X0129929Y0141479D02*
X0125393Y0141479D01*
X0125393Y0142492D02*
X0129929Y0142492D01*
X0120284Y0141619D02*
X0115748Y0141619D01*
X0115748Y0144659D01*
X0120284Y0144659D01*
X0120284Y0141619D01*
X0120284Y0142632D02*
X0115748Y0142632D01*
X0115748Y0143645D02*
X0120284Y0143645D01*
X0120284Y0144658D02*
X0115748Y0144658D01*
X0115748Y0147918D02*
X0120284Y0147918D01*
X0115748Y0147918D02*
X0115748Y0150958D01*
X0120284Y0150958D01*
X0120284Y0147918D01*
X0120284Y0148931D02*
X0115748Y0148931D01*
X0115748Y0149944D02*
X0120284Y0149944D01*
X0120284Y0150957D02*
X0115748Y0150957D01*
X0115748Y0154217D02*
X0120284Y0154217D01*
X0115748Y0154217D02*
X0115748Y0157257D01*
X0120284Y0157257D01*
X0120284Y0154217D01*
X0120284Y0155230D02*
X0115748Y0155230D01*
X0115748Y0156243D02*
X0120284Y0156243D01*
X0120284Y0157256D02*
X0115748Y0157256D01*
X0125393Y0154414D02*
X0129929Y0154414D01*
X0125393Y0154414D02*
X0125393Y0157454D01*
X0129929Y0157454D01*
X0129929Y0154414D01*
X0129929Y0155427D02*
X0125393Y0155427D01*
X0125393Y0156440D02*
X0129929Y0156440D01*
X0129929Y0157453D02*
X0125393Y0157453D01*
X0125393Y0160713D02*
X0129929Y0160713D01*
X0125393Y0160713D02*
X0125393Y0163753D01*
X0129929Y0163753D01*
X0129929Y0160713D01*
X0129929Y0161726D02*
X0125393Y0161726D01*
X0125393Y0162739D02*
X0129929Y0162739D01*
X0129929Y0163752D02*
X0125393Y0163752D01*
X0125393Y0167012D02*
X0129929Y0167012D01*
X0125393Y0167012D02*
X0125393Y0170052D01*
X0129929Y0170052D01*
X0129929Y0167012D01*
X0129929Y0168025D02*
X0125393Y0168025D01*
X0125393Y0169038D02*
X0129929Y0169038D01*
X0129929Y0170051D02*
X0125393Y0170051D01*
X0142323Y0167012D02*
X0146859Y0167012D01*
X0142323Y0167012D02*
X0142323Y0170052D01*
X0146859Y0170052D01*
X0146859Y0167012D01*
X0146859Y0168025D02*
X0142323Y0168025D01*
X0142323Y0169038D02*
X0146859Y0169038D01*
X0146859Y0170051D02*
X0142323Y0170051D01*
X0142323Y0160713D02*
X0146859Y0160713D01*
X0142323Y0160713D02*
X0142323Y0163753D01*
X0146859Y0163753D01*
X0146859Y0160713D01*
X0146859Y0161726D02*
X0142323Y0161726D01*
X0142323Y0162739D02*
X0146859Y0162739D01*
X0146859Y0163752D02*
X0142323Y0163752D01*
X0142323Y0154414D02*
X0146859Y0154414D01*
X0142323Y0154414D02*
X0142323Y0157454D01*
X0146859Y0157454D01*
X0146859Y0154414D01*
X0146859Y0155427D02*
X0142323Y0155427D01*
X0142323Y0156440D02*
X0146859Y0156440D01*
X0146859Y0157453D02*
X0142323Y0157453D01*
X0142323Y0142493D02*
X0146859Y0142493D01*
X0146859Y0139453D01*
X0142323Y0139453D01*
X0142323Y0142493D01*
X0142323Y0140466D02*
X0146859Y0140466D01*
X0146859Y0141479D02*
X0142323Y0141479D01*
X0142323Y0142492D02*
X0146859Y0142492D01*
X0146859Y0136194D02*
X0142323Y0136194D01*
X0146859Y0136194D02*
X0146859Y0133154D01*
X0142323Y0133154D01*
X0142323Y0136194D01*
X0142323Y0134167D02*
X0146859Y0134167D01*
X0146859Y0135180D02*
X0142323Y0135180D01*
X0142323Y0136193D02*
X0146859Y0136193D01*
X0146859Y0129895D02*
X0142323Y0129895D01*
X0146859Y0129895D02*
X0146859Y0126855D01*
X0142323Y0126855D01*
X0142323Y0129895D01*
X0142323Y0127868D02*
X0146859Y0127868D01*
X0146859Y0128881D02*
X0142323Y0128881D01*
X0142323Y0129894D02*
X0146859Y0129894D01*
X0146859Y0111894D02*
X0142323Y0111894D01*
X0142323Y0114934D01*
X0146859Y0114934D01*
X0146859Y0111894D01*
X0146859Y0112907D02*
X0142323Y0112907D01*
X0142323Y0113920D02*
X0146859Y0113920D01*
X0146859Y0114933D02*
X0142323Y0114933D01*
X0142323Y0105595D02*
X0146859Y0105595D01*
X0142323Y0105595D02*
X0142323Y0108635D01*
X0146859Y0108635D01*
X0146859Y0105595D01*
X0146859Y0106608D02*
X0142323Y0106608D01*
X0142323Y0107621D02*
X0146859Y0107621D01*
X0146859Y0108634D02*
X0142323Y0108634D01*
X0142323Y0099296D02*
X0146859Y0099296D01*
X0142323Y0099296D02*
X0142323Y0102336D01*
X0146859Y0102336D01*
X0146859Y0099296D01*
X0146859Y0100309D02*
X0142323Y0100309D01*
X0142323Y0101322D02*
X0146859Y0101322D01*
X0146859Y0102335D02*
X0142323Y0102335D01*
X0142323Y0087375D02*
X0146859Y0087375D01*
X0146859Y0084335D01*
X0142323Y0084335D01*
X0142323Y0087375D01*
X0142323Y0085348D02*
X0146859Y0085348D01*
X0146859Y0086361D02*
X0142323Y0086361D01*
X0142323Y0087374D02*
X0146859Y0087374D01*
X0146859Y0081076D02*
X0142323Y0081076D01*
X0146859Y0081076D02*
X0146859Y0078036D01*
X0142323Y0078036D01*
X0142323Y0081076D01*
X0142323Y0079049D02*
X0146859Y0079049D01*
X0146859Y0080062D02*
X0142323Y0080062D01*
X0142323Y0081075D02*
X0146859Y0081075D01*
X0146859Y0074777D02*
X0142323Y0074777D01*
X0146859Y0074777D02*
X0146859Y0071737D01*
X0142323Y0071737D01*
X0142323Y0074777D01*
X0142323Y0072750D02*
X0146859Y0072750D01*
X0146859Y0073763D02*
X0142323Y0073763D01*
X0142323Y0074776D02*
X0146859Y0074776D01*
X0146859Y0056776D02*
X0142323Y0056776D01*
X0142323Y0059816D01*
X0146859Y0059816D01*
X0146859Y0056776D01*
X0146859Y0057789D02*
X0142323Y0057789D01*
X0142323Y0058802D02*
X0146859Y0058802D01*
X0146859Y0059815D02*
X0142323Y0059815D01*
X0142323Y0050477D02*
X0146859Y0050477D01*
X0142323Y0050477D02*
X0142323Y0053517D01*
X0146859Y0053517D01*
X0146859Y0050477D01*
X0146859Y0051490D02*
X0142323Y0051490D01*
X0142323Y0052503D02*
X0146859Y0052503D01*
X0146859Y0053516D02*
X0142323Y0053516D01*
X0142323Y0044178D02*
X0146859Y0044178D01*
X0142323Y0044178D02*
X0142323Y0047218D01*
X0146859Y0047218D01*
X0146859Y0044178D01*
X0146859Y0045191D02*
X0142323Y0045191D01*
X0142323Y0046204D02*
X0146859Y0046204D01*
X0146859Y0047217D02*
X0142323Y0047217D01*
X0103355Y0060997D02*
X0098819Y0060997D01*
X0103355Y0060997D02*
X0103355Y0057957D01*
X0098819Y0057957D01*
X0098819Y0060997D01*
X0098819Y0058970D02*
X0103355Y0058970D01*
X0103355Y0059983D02*
X0098819Y0059983D01*
X0098819Y0060996D02*
X0103355Y0060996D01*
X0103355Y0067296D02*
X0098819Y0067296D01*
X0103355Y0067296D02*
X0103355Y0064256D01*
X0098819Y0064256D01*
X0098819Y0067296D01*
X0098819Y0065269D02*
X0103355Y0065269D01*
X0103355Y0066282D02*
X0098819Y0066282D01*
X0098819Y0067295D02*
X0103355Y0067295D01*
X0103355Y0073596D02*
X0098819Y0073596D01*
X0103355Y0073596D02*
X0103355Y0070556D01*
X0098819Y0070556D01*
X0098819Y0073596D01*
X0098819Y0071569D02*
X0103355Y0071569D01*
X0103355Y0072582D02*
X0098819Y0072582D01*
X0098819Y0073595D02*
X0103355Y0073595D01*
X0093709Y0073596D02*
X0089173Y0073596D01*
X0093709Y0073596D02*
X0093709Y0070556D01*
X0089173Y0070556D01*
X0089173Y0073596D01*
X0089173Y0071569D02*
X0093709Y0071569D01*
X0093709Y0072582D02*
X0089173Y0072582D01*
X0089173Y0073595D02*
X0093709Y0073595D01*
X0093709Y0067296D02*
X0089173Y0067296D01*
X0093709Y0067296D02*
X0093709Y0064256D01*
X0089173Y0064256D01*
X0089173Y0067296D01*
X0089173Y0065269D02*
X0093709Y0065269D01*
X0093709Y0066282D02*
X0089173Y0066282D01*
X0089173Y0067295D02*
X0093709Y0067295D01*
X0093709Y0060997D02*
X0089173Y0060997D01*
X0093709Y0060997D02*
X0093709Y0057957D01*
X0089173Y0057957D01*
X0089173Y0060997D01*
X0089173Y0058970D02*
X0093709Y0058970D01*
X0093709Y0059983D02*
X0089173Y0059983D01*
X0089173Y0060996D02*
X0093709Y0060996D01*
X0093709Y0085516D02*
X0089173Y0085516D01*
X0089173Y0088556D01*
X0093709Y0088556D01*
X0093709Y0085516D01*
X0093709Y0086529D02*
X0089173Y0086529D01*
X0089173Y0087542D02*
X0093709Y0087542D01*
X0093709Y0088555D02*
X0089173Y0088555D01*
X0089173Y0091815D02*
X0093709Y0091815D01*
X0089173Y0091815D02*
X0089173Y0094855D01*
X0093709Y0094855D01*
X0093709Y0091815D01*
X0093709Y0092828D02*
X0089173Y0092828D01*
X0089173Y0093841D02*
X0093709Y0093841D01*
X0093709Y0094854D02*
X0089173Y0094854D01*
X0089173Y0098115D02*
X0093709Y0098115D01*
X0089173Y0098115D02*
X0089173Y0101155D01*
X0093709Y0101155D01*
X0093709Y0098115D01*
X0093709Y0099128D02*
X0089173Y0099128D01*
X0089173Y0100141D02*
X0093709Y0100141D01*
X0093709Y0101154D02*
X0089173Y0101154D01*
X0098819Y0098115D02*
X0103355Y0098115D01*
X0098819Y0098115D02*
X0098819Y0101155D01*
X0103355Y0101155D01*
X0103355Y0098115D01*
X0103355Y0099128D02*
X0098819Y0099128D01*
X0098819Y0100141D02*
X0103355Y0100141D01*
X0103355Y0101154D02*
X0098819Y0101154D01*
X0098819Y0091815D02*
X0103355Y0091815D01*
X0098819Y0091815D02*
X0098819Y0094855D01*
X0103355Y0094855D01*
X0103355Y0091815D01*
X0103355Y0092828D02*
X0098819Y0092828D01*
X0098819Y0093841D02*
X0103355Y0093841D01*
X0103355Y0094854D02*
X0098819Y0094854D01*
X0098819Y0085516D02*
X0103355Y0085516D01*
X0098819Y0085516D02*
X0098819Y0088556D01*
X0103355Y0088556D01*
X0103355Y0085516D01*
X0103355Y0086529D02*
X0098819Y0086529D01*
X0098819Y0087542D02*
X0103355Y0087542D01*
X0103355Y0088555D02*
X0098819Y0088555D01*
X0098819Y0116115D02*
X0103355Y0116115D01*
X0103355Y0113075D01*
X0098819Y0113075D01*
X0098819Y0116115D01*
X0098819Y0114088D02*
X0103355Y0114088D01*
X0103355Y0115101D02*
X0098819Y0115101D01*
X0098819Y0116114D02*
X0103355Y0116114D01*
X0103355Y0122414D02*
X0098819Y0122414D01*
X0103355Y0122414D02*
X0103355Y0119374D01*
X0098819Y0119374D01*
X0098819Y0122414D01*
X0098819Y0120387D02*
X0103355Y0120387D01*
X0103355Y0121400D02*
X0098819Y0121400D01*
X0098819Y0122413D02*
X0103355Y0122413D01*
X0103355Y0128714D02*
X0098819Y0128714D01*
X0103355Y0128714D02*
X0103355Y0125674D01*
X0098819Y0125674D01*
X0098819Y0128714D01*
X0098819Y0126687D02*
X0103355Y0126687D01*
X0103355Y0127700D02*
X0098819Y0127700D01*
X0098819Y0128713D02*
X0103355Y0128713D01*
X0093709Y0128714D02*
X0089173Y0128714D01*
X0093709Y0128714D02*
X0093709Y0125674D01*
X0089173Y0125674D01*
X0089173Y0128714D01*
X0089173Y0126687D02*
X0093709Y0126687D01*
X0093709Y0127700D02*
X0089173Y0127700D01*
X0089173Y0128713D02*
X0093709Y0128713D01*
X0093709Y0122414D02*
X0089173Y0122414D01*
X0093709Y0122414D02*
X0093709Y0119374D01*
X0089173Y0119374D01*
X0089173Y0122414D01*
X0089173Y0120387D02*
X0093709Y0120387D01*
X0093709Y0121400D02*
X0089173Y0121400D01*
X0089173Y0122413D02*
X0093709Y0122413D01*
X0093709Y0116115D02*
X0089173Y0116115D01*
X0093709Y0116115D02*
X0093709Y0113075D01*
X0089173Y0113075D01*
X0089173Y0116115D01*
X0089173Y0114088D02*
X0093709Y0114088D01*
X0093709Y0115101D02*
X0089173Y0115101D01*
X0089173Y0116114D02*
X0093709Y0116114D01*
X0093709Y0141619D02*
X0089173Y0141619D01*
X0089173Y0144659D01*
X0093709Y0144659D01*
X0093709Y0141619D01*
X0093709Y0142632D02*
X0089173Y0142632D01*
X0089173Y0143645D02*
X0093709Y0143645D01*
X0093709Y0144658D02*
X0089173Y0144658D01*
X0089173Y0147918D02*
X0093709Y0147918D01*
X0089173Y0147918D02*
X0089173Y0150958D01*
X0093709Y0150958D01*
X0093709Y0147918D01*
X0093709Y0148931D02*
X0089173Y0148931D01*
X0089173Y0149944D02*
X0093709Y0149944D01*
X0093709Y0150957D02*
X0089173Y0150957D01*
X0089173Y0154217D02*
X0093709Y0154217D01*
X0089173Y0154217D02*
X0089173Y0157257D01*
X0093709Y0157257D01*
X0093709Y0154217D01*
X0093709Y0155230D02*
X0089173Y0155230D01*
X0089173Y0156243D02*
X0093709Y0156243D01*
X0093709Y0157256D02*
X0089173Y0157256D01*
X0098819Y0154217D02*
X0103355Y0154217D01*
X0098819Y0154217D02*
X0098819Y0157257D01*
X0103355Y0157257D01*
X0103355Y0154217D01*
X0103355Y0155230D02*
X0098819Y0155230D01*
X0098819Y0156243D02*
X0103355Y0156243D01*
X0103355Y0157256D02*
X0098819Y0157256D01*
X0098819Y0147918D02*
X0103355Y0147918D01*
X0098819Y0147918D02*
X0098819Y0150958D01*
X0103355Y0150958D01*
X0103355Y0147918D01*
X0103355Y0148931D02*
X0098819Y0148931D01*
X0098819Y0149944D02*
X0103355Y0149944D01*
X0103355Y0150957D02*
X0098819Y0150957D01*
X0098819Y0141619D02*
X0103355Y0141619D01*
X0098819Y0141619D02*
X0098819Y0144659D01*
X0103355Y0144659D01*
X0103355Y0141619D01*
X0103355Y0142632D02*
X0098819Y0142632D01*
X0098819Y0143645D02*
X0103355Y0143645D01*
X0103355Y0144658D02*
X0098819Y0144658D01*
M02*
