G75*
%MOIN*%
%OFA0B0*%
%FSLAX25Y25*%
%IPPOS*%
%LPD*%
%AMOC8*
5,1,8,0,0,1.08239X$1,22.5*
%
%ADD10C,0.00787*%
%ADD11C,0.00500*%
%ADD12C,0.00400*%
%ADD13C,0.00600*%
D10*
X0069374Y0044517D02*
X0069376Y0044556D01*
X0069382Y0044595D01*
X0069392Y0044633D01*
X0069405Y0044670D01*
X0069422Y0044705D01*
X0069442Y0044739D01*
X0069466Y0044770D01*
X0069493Y0044799D01*
X0069522Y0044825D01*
X0069554Y0044848D01*
X0069588Y0044868D01*
X0069624Y0044884D01*
X0069661Y0044896D01*
X0069700Y0044905D01*
X0069739Y0044910D01*
X0069778Y0044911D01*
X0069817Y0044908D01*
X0069856Y0044901D01*
X0069893Y0044890D01*
X0069930Y0044876D01*
X0069965Y0044858D01*
X0069998Y0044837D01*
X0070029Y0044812D01*
X0070057Y0044785D01*
X0070082Y0044755D01*
X0070104Y0044722D01*
X0070123Y0044688D01*
X0070138Y0044652D01*
X0070150Y0044614D01*
X0070158Y0044576D01*
X0070162Y0044537D01*
X0070162Y0044497D01*
X0070158Y0044458D01*
X0070150Y0044420D01*
X0070138Y0044382D01*
X0070123Y0044346D01*
X0070104Y0044312D01*
X0070082Y0044279D01*
X0070057Y0044249D01*
X0070029Y0044222D01*
X0069998Y0044197D01*
X0069965Y0044176D01*
X0069930Y0044158D01*
X0069893Y0044144D01*
X0069856Y0044133D01*
X0069817Y0044126D01*
X0069778Y0044123D01*
X0069739Y0044124D01*
X0069700Y0044129D01*
X0069661Y0044138D01*
X0069624Y0044150D01*
X0069588Y0044166D01*
X0069554Y0044186D01*
X0069522Y0044209D01*
X0069493Y0044235D01*
X0069466Y0044264D01*
X0069442Y0044295D01*
X0069422Y0044329D01*
X0069405Y0044364D01*
X0069392Y0044401D01*
X0069382Y0044439D01*
X0069376Y0044478D01*
X0069374Y0044517D01*
X0095949Y0044517D02*
X0095951Y0044556D01*
X0095957Y0044595D01*
X0095967Y0044633D01*
X0095980Y0044670D01*
X0095997Y0044705D01*
X0096017Y0044739D01*
X0096041Y0044770D01*
X0096068Y0044799D01*
X0096097Y0044825D01*
X0096129Y0044848D01*
X0096163Y0044868D01*
X0096199Y0044884D01*
X0096236Y0044896D01*
X0096275Y0044905D01*
X0096314Y0044910D01*
X0096353Y0044911D01*
X0096392Y0044908D01*
X0096431Y0044901D01*
X0096468Y0044890D01*
X0096505Y0044876D01*
X0096540Y0044858D01*
X0096573Y0044837D01*
X0096604Y0044812D01*
X0096632Y0044785D01*
X0096657Y0044755D01*
X0096679Y0044722D01*
X0096698Y0044688D01*
X0096713Y0044652D01*
X0096725Y0044614D01*
X0096733Y0044576D01*
X0096737Y0044537D01*
X0096737Y0044497D01*
X0096733Y0044458D01*
X0096725Y0044420D01*
X0096713Y0044382D01*
X0096698Y0044346D01*
X0096679Y0044312D01*
X0096657Y0044279D01*
X0096632Y0044249D01*
X0096604Y0044222D01*
X0096573Y0044197D01*
X0096540Y0044176D01*
X0096505Y0044158D01*
X0096468Y0044144D01*
X0096431Y0044133D01*
X0096392Y0044126D01*
X0096353Y0044123D01*
X0096314Y0044124D01*
X0096275Y0044129D01*
X0096236Y0044138D01*
X0096199Y0044150D01*
X0096163Y0044166D01*
X0096129Y0044186D01*
X0096097Y0044209D01*
X0096068Y0044235D01*
X0096041Y0044264D01*
X0096017Y0044295D01*
X0095997Y0044329D01*
X0095980Y0044364D01*
X0095967Y0044401D01*
X0095957Y0044439D01*
X0095951Y0044478D01*
X0095949Y0044517D01*
X0095791Y0059477D02*
X0095793Y0059516D01*
X0095799Y0059555D01*
X0095809Y0059593D01*
X0095822Y0059630D01*
X0095839Y0059665D01*
X0095859Y0059699D01*
X0095883Y0059730D01*
X0095910Y0059759D01*
X0095939Y0059785D01*
X0095971Y0059808D01*
X0096005Y0059828D01*
X0096041Y0059844D01*
X0096078Y0059856D01*
X0096117Y0059865D01*
X0096156Y0059870D01*
X0096195Y0059871D01*
X0096234Y0059868D01*
X0096273Y0059861D01*
X0096310Y0059850D01*
X0096347Y0059836D01*
X0096382Y0059818D01*
X0096415Y0059797D01*
X0096446Y0059772D01*
X0096474Y0059745D01*
X0096499Y0059715D01*
X0096521Y0059682D01*
X0096540Y0059648D01*
X0096555Y0059612D01*
X0096567Y0059574D01*
X0096575Y0059536D01*
X0096579Y0059497D01*
X0096579Y0059457D01*
X0096575Y0059418D01*
X0096567Y0059380D01*
X0096555Y0059342D01*
X0096540Y0059306D01*
X0096521Y0059272D01*
X0096499Y0059239D01*
X0096474Y0059209D01*
X0096446Y0059182D01*
X0096415Y0059157D01*
X0096382Y0059136D01*
X0096347Y0059118D01*
X0096310Y0059104D01*
X0096273Y0059093D01*
X0096234Y0059086D01*
X0096195Y0059083D01*
X0096156Y0059084D01*
X0096117Y0059089D01*
X0096078Y0059098D01*
X0096041Y0059110D01*
X0096005Y0059126D01*
X0095971Y0059146D01*
X0095939Y0059169D01*
X0095910Y0059195D01*
X0095883Y0059224D01*
X0095859Y0059255D01*
X0095839Y0059289D01*
X0095822Y0059324D01*
X0095809Y0059361D01*
X0095799Y0059399D01*
X0095793Y0059438D01*
X0095791Y0059477D01*
X0122366Y0059477D02*
X0122368Y0059516D01*
X0122374Y0059555D01*
X0122384Y0059593D01*
X0122397Y0059630D01*
X0122414Y0059665D01*
X0122434Y0059699D01*
X0122458Y0059730D01*
X0122485Y0059759D01*
X0122514Y0059785D01*
X0122546Y0059808D01*
X0122580Y0059828D01*
X0122616Y0059844D01*
X0122653Y0059856D01*
X0122692Y0059865D01*
X0122731Y0059870D01*
X0122770Y0059871D01*
X0122809Y0059868D01*
X0122848Y0059861D01*
X0122885Y0059850D01*
X0122922Y0059836D01*
X0122957Y0059818D01*
X0122990Y0059797D01*
X0123021Y0059772D01*
X0123049Y0059745D01*
X0123074Y0059715D01*
X0123096Y0059682D01*
X0123115Y0059648D01*
X0123130Y0059612D01*
X0123142Y0059574D01*
X0123150Y0059536D01*
X0123154Y0059497D01*
X0123154Y0059457D01*
X0123150Y0059418D01*
X0123142Y0059380D01*
X0123130Y0059342D01*
X0123115Y0059306D01*
X0123096Y0059272D01*
X0123074Y0059239D01*
X0123049Y0059209D01*
X0123021Y0059182D01*
X0122990Y0059157D01*
X0122957Y0059136D01*
X0122922Y0059118D01*
X0122885Y0059104D01*
X0122848Y0059093D01*
X0122809Y0059086D01*
X0122770Y0059083D01*
X0122731Y0059084D01*
X0122692Y0059089D01*
X0122653Y0059098D01*
X0122616Y0059110D01*
X0122580Y0059126D01*
X0122546Y0059146D01*
X0122514Y0059169D01*
X0122485Y0059195D01*
X0122458Y0059224D01*
X0122434Y0059255D01*
X0122414Y0059289D01*
X0122397Y0059324D01*
X0122384Y0059361D01*
X0122374Y0059399D01*
X0122368Y0059438D01*
X0122366Y0059477D01*
X0122523Y0058296D02*
X0122525Y0058335D01*
X0122531Y0058374D01*
X0122541Y0058412D01*
X0122554Y0058449D01*
X0122571Y0058484D01*
X0122591Y0058518D01*
X0122615Y0058549D01*
X0122642Y0058578D01*
X0122671Y0058604D01*
X0122703Y0058627D01*
X0122737Y0058647D01*
X0122773Y0058663D01*
X0122810Y0058675D01*
X0122849Y0058684D01*
X0122888Y0058689D01*
X0122927Y0058690D01*
X0122966Y0058687D01*
X0123005Y0058680D01*
X0123042Y0058669D01*
X0123079Y0058655D01*
X0123114Y0058637D01*
X0123147Y0058616D01*
X0123178Y0058591D01*
X0123206Y0058564D01*
X0123231Y0058534D01*
X0123253Y0058501D01*
X0123272Y0058467D01*
X0123287Y0058431D01*
X0123299Y0058393D01*
X0123307Y0058355D01*
X0123311Y0058316D01*
X0123311Y0058276D01*
X0123307Y0058237D01*
X0123299Y0058199D01*
X0123287Y0058161D01*
X0123272Y0058125D01*
X0123253Y0058091D01*
X0123231Y0058058D01*
X0123206Y0058028D01*
X0123178Y0058001D01*
X0123147Y0057976D01*
X0123114Y0057955D01*
X0123079Y0057937D01*
X0123042Y0057923D01*
X0123005Y0057912D01*
X0122966Y0057905D01*
X0122927Y0057902D01*
X0122888Y0057903D01*
X0122849Y0057908D01*
X0122810Y0057917D01*
X0122773Y0057929D01*
X0122737Y0057945D01*
X0122703Y0057965D01*
X0122671Y0057988D01*
X0122642Y0058014D01*
X0122615Y0058043D01*
X0122591Y0058074D01*
X0122571Y0058108D01*
X0122554Y0058143D01*
X0122541Y0058180D01*
X0122531Y0058218D01*
X0122525Y0058257D01*
X0122523Y0058296D01*
X0148941Y0073257D02*
X0148943Y0073296D01*
X0148949Y0073335D01*
X0148959Y0073373D01*
X0148972Y0073410D01*
X0148989Y0073445D01*
X0149009Y0073479D01*
X0149033Y0073510D01*
X0149060Y0073539D01*
X0149089Y0073565D01*
X0149121Y0073588D01*
X0149155Y0073608D01*
X0149191Y0073624D01*
X0149228Y0073636D01*
X0149267Y0073645D01*
X0149306Y0073650D01*
X0149345Y0073651D01*
X0149384Y0073648D01*
X0149423Y0073641D01*
X0149460Y0073630D01*
X0149497Y0073616D01*
X0149532Y0073598D01*
X0149565Y0073577D01*
X0149596Y0073552D01*
X0149624Y0073525D01*
X0149649Y0073495D01*
X0149671Y0073462D01*
X0149690Y0073428D01*
X0149705Y0073392D01*
X0149717Y0073354D01*
X0149725Y0073316D01*
X0149729Y0073277D01*
X0149729Y0073237D01*
X0149725Y0073198D01*
X0149717Y0073160D01*
X0149705Y0073122D01*
X0149690Y0073086D01*
X0149671Y0073052D01*
X0149649Y0073019D01*
X0149624Y0072989D01*
X0149596Y0072962D01*
X0149565Y0072937D01*
X0149532Y0072916D01*
X0149497Y0072898D01*
X0149460Y0072884D01*
X0149423Y0072873D01*
X0149384Y0072866D01*
X0149345Y0072863D01*
X0149306Y0072864D01*
X0149267Y0072869D01*
X0149228Y0072878D01*
X0149191Y0072890D01*
X0149155Y0072906D01*
X0149121Y0072926D01*
X0149089Y0072949D01*
X0149060Y0072975D01*
X0149033Y0073004D01*
X0149009Y0073035D01*
X0148989Y0073069D01*
X0148972Y0073104D01*
X0148959Y0073141D01*
X0148949Y0073179D01*
X0148943Y0073218D01*
X0148941Y0073257D01*
X0095949Y0099635D02*
X0095951Y0099674D01*
X0095957Y0099713D01*
X0095967Y0099751D01*
X0095980Y0099788D01*
X0095997Y0099823D01*
X0096017Y0099857D01*
X0096041Y0099888D01*
X0096068Y0099917D01*
X0096097Y0099943D01*
X0096129Y0099966D01*
X0096163Y0099986D01*
X0096199Y0100002D01*
X0096236Y0100014D01*
X0096275Y0100023D01*
X0096314Y0100028D01*
X0096353Y0100029D01*
X0096392Y0100026D01*
X0096431Y0100019D01*
X0096468Y0100008D01*
X0096505Y0099994D01*
X0096540Y0099976D01*
X0096573Y0099955D01*
X0096604Y0099930D01*
X0096632Y0099903D01*
X0096657Y0099873D01*
X0096679Y0099840D01*
X0096698Y0099806D01*
X0096713Y0099770D01*
X0096725Y0099732D01*
X0096733Y0099694D01*
X0096737Y0099655D01*
X0096737Y0099615D01*
X0096733Y0099576D01*
X0096725Y0099538D01*
X0096713Y0099500D01*
X0096698Y0099464D01*
X0096679Y0099430D01*
X0096657Y0099397D01*
X0096632Y0099367D01*
X0096604Y0099340D01*
X0096573Y0099315D01*
X0096540Y0099294D01*
X0096505Y0099276D01*
X0096468Y0099262D01*
X0096431Y0099251D01*
X0096392Y0099244D01*
X0096353Y0099241D01*
X0096314Y0099242D01*
X0096275Y0099247D01*
X0096236Y0099256D01*
X0096199Y0099268D01*
X0096163Y0099284D01*
X0096129Y0099304D01*
X0096097Y0099327D01*
X0096068Y0099353D01*
X0096041Y0099382D01*
X0096017Y0099413D01*
X0095997Y0099447D01*
X0095980Y0099482D01*
X0095967Y0099519D01*
X0095957Y0099557D01*
X0095951Y0099596D01*
X0095949Y0099635D01*
X0069374Y0099635D02*
X0069376Y0099674D01*
X0069382Y0099713D01*
X0069392Y0099751D01*
X0069405Y0099788D01*
X0069422Y0099823D01*
X0069442Y0099857D01*
X0069466Y0099888D01*
X0069493Y0099917D01*
X0069522Y0099943D01*
X0069554Y0099966D01*
X0069588Y0099986D01*
X0069624Y0100002D01*
X0069661Y0100014D01*
X0069700Y0100023D01*
X0069739Y0100028D01*
X0069778Y0100029D01*
X0069817Y0100026D01*
X0069856Y0100019D01*
X0069893Y0100008D01*
X0069930Y0099994D01*
X0069965Y0099976D01*
X0069998Y0099955D01*
X0070029Y0099930D01*
X0070057Y0099903D01*
X0070082Y0099873D01*
X0070104Y0099840D01*
X0070123Y0099806D01*
X0070138Y0099770D01*
X0070150Y0099732D01*
X0070158Y0099694D01*
X0070162Y0099655D01*
X0070162Y0099615D01*
X0070158Y0099576D01*
X0070150Y0099538D01*
X0070138Y0099500D01*
X0070123Y0099464D01*
X0070104Y0099430D01*
X0070082Y0099397D01*
X0070057Y0099367D01*
X0070029Y0099340D01*
X0069998Y0099315D01*
X0069965Y0099294D01*
X0069930Y0099276D01*
X0069893Y0099262D01*
X0069856Y0099251D01*
X0069817Y0099244D01*
X0069778Y0099241D01*
X0069739Y0099242D01*
X0069700Y0099247D01*
X0069661Y0099256D01*
X0069624Y0099268D01*
X0069588Y0099284D01*
X0069554Y0099304D01*
X0069522Y0099327D01*
X0069493Y0099353D01*
X0069466Y0099382D01*
X0069442Y0099413D01*
X0069422Y0099447D01*
X0069405Y0099482D01*
X0069392Y0099519D01*
X0069382Y0099557D01*
X0069376Y0099596D01*
X0069374Y0099635D01*
X0042799Y0113414D02*
X0042801Y0113453D01*
X0042807Y0113492D01*
X0042817Y0113530D01*
X0042830Y0113567D01*
X0042847Y0113602D01*
X0042867Y0113636D01*
X0042891Y0113667D01*
X0042918Y0113696D01*
X0042947Y0113722D01*
X0042979Y0113745D01*
X0043013Y0113765D01*
X0043049Y0113781D01*
X0043086Y0113793D01*
X0043125Y0113802D01*
X0043164Y0113807D01*
X0043203Y0113808D01*
X0043242Y0113805D01*
X0043281Y0113798D01*
X0043318Y0113787D01*
X0043355Y0113773D01*
X0043390Y0113755D01*
X0043423Y0113734D01*
X0043454Y0113709D01*
X0043482Y0113682D01*
X0043507Y0113652D01*
X0043529Y0113619D01*
X0043548Y0113585D01*
X0043563Y0113549D01*
X0043575Y0113511D01*
X0043583Y0113473D01*
X0043587Y0113434D01*
X0043587Y0113394D01*
X0043583Y0113355D01*
X0043575Y0113317D01*
X0043563Y0113279D01*
X0043548Y0113243D01*
X0043529Y0113209D01*
X0043507Y0113176D01*
X0043482Y0113146D01*
X0043454Y0113119D01*
X0043423Y0113094D01*
X0043390Y0113073D01*
X0043355Y0113055D01*
X0043318Y0113041D01*
X0043281Y0113030D01*
X0043242Y0113023D01*
X0043203Y0113020D01*
X0043164Y0113021D01*
X0043125Y0113026D01*
X0043086Y0113035D01*
X0043049Y0113047D01*
X0043013Y0113063D01*
X0042979Y0113083D01*
X0042947Y0113106D01*
X0042918Y0113132D01*
X0042891Y0113161D01*
X0042867Y0113192D01*
X0042847Y0113226D01*
X0042830Y0113261D01*
X0042817Y0113298D01*
X0042807Y0113336D01*
X0042801Y0113375D01*
X0042799Y0113414D01*
X0069216Y0128375D02*
X0069218Y0128414D01*
X0069224Y0128453D01*
X0069234Y0128491D01*
X0069247Y0128528D01*
X0069264Y0128563D01*
X0069284Y0128597D01*
X0069308Y0128628D01*
X0069335Y0128657D01*
X0069364Y0128683D01*
X0069396Y0128706D01*
X0069430Y0128726D01*
X0069466Y0128742D01*
X0069503Y0128754D01*
X0069542Y0128763D01*
X0069581Y0128768D01*
X0069620Y0128769D01*
X0069659Y0128766D01*
X0069698Y0128759D01*
X0069735Y0128748D01*
X0069772Y0128734D01*
X0069807Y0128716D01*
X0069840Y0128695D01*
X0069871Y0128670D01*
X0069899Y0128643D01*
X0069924Y0128613D01*
X0069946Y0128580D01*
X0069965Y0128546D01*
X0069980Y0128510D01*
X0069992Y0128472D01*
X0070000Y0128434D01*
X0070004Y0128395D01*
X0070004Y0128355D01*
X0070000Y0128316D01*
X0069992Y0128278D01*
X0069980Y0128240D01*
X0069965Y0128204D01*
X0069946Y0128170D01*
X0069924Y0128137D01*
X0069899Y0128107D01*
X0069871Y0128080D01*
X0069840Y0128055D01*
X0069807Y0128034D01*
X0069772Y0128016D01*
X0069735Y0128002D01*
X0069698Y0127991D01*
X0069659Y0127984D01*
X0069620Y0127981D01*
X0069581Y0127982D01*
X0069542Y0127987D01*
X0069503Y0127996D01*
X0069466Y0128008D01*
X0069430Y0128024D01*
X0069396Y0128044D01*
X0069364Y0128067D01*
X0069335Y0128093D01*
X0069308Y0128122D01*
X0069284Y0128153D01*
X0069264Y0128187D01*
X0069247Y0128222D01*
X0069234Y0128259D01*
X0069224Y0128297D01*
X0069218Y0128336D01*
X0069216Y0128375D01*
X0095791Y0114595D02*
X0095793Y0114634D01*
X0095799Y0114673D01*
X0095809Y0114711D01*
X0095822Y0114748D01*
X0095839Y0114783D01*
X0095859Y0114817D01*
X0095883Y0114848D01*
X0095910Y0114877D01*
X0095939Y0114903D01*
X0095971Y0114926D01*
X0096005Y0114946D01*
X0096041Y0114962D01*
X0096078Y0114974D01*
X0096117Y0114983D01*
X0096156Y0114988D01*
X0096195Y0114989D01*
X0096234Y0114986D01*
X0096273Y0114979D01*
X0096310Y0114968D01*
X0096347Y0114954D01*
X0096382Y0114936D01*
X0096415Y0114915D01*
X0096446Y0114890D01*
X0096474Y0114863D01*
X0096499Y0114833D01*
X0096521Y0114800D01*
X0096540Y0114766D01*
X0096555Y0114730D01*
X0096567Y0114692D01*
X0096575Y0114654D01*
X0096579Y0114615D01*
X0096579Y0114575D01*
X0096575Y0114536D01*
X0096567Y0114498D01*
X0096555Y0114460D01*
X0096540Y0114424D01*
X0096521Y0114390D01*
X0096499Y0114357D01*
X0096474Y0114327D01*
X0096446Y0114300D01*
X0096415Y0114275D01*
X0096382Y0114254D01*
X0096347Y0114236D01*
X0096310Y0114222D01*
X0096273Y0114211D01*
X0096234Y0114204D01*
X0096195Y0114201D01*
X0096156Y0114202D01*
X0096117Y0114207D01*
X0096078Y0114216D01*
X0096041Y0114228D01*
X0096005Y0114244D01*
X0095971Y0114264D01*
X0095939Y0114287D01*
X0095910Y0114313D01*
X0095883Y0114342D01*
X0095859Y0114373D01*
X0095839Y0114407D01*
X0095822Y0114442D01*
X0095809Y0114479D01*
X0095799Y0114517D01*
X0095793Y0114556D01*
X0095791Y0114595D01*
X0122366Y0114595D02*
X0122368Y0114634D01*
X0122374Y0114673D01*
X0122384Y0114711D01*
X0122397Y0114748D01*
X0122414Y0114783D01*
X0122434Y0114817D01*
X0122458Y0114848D01*
X0122485Y0114877D01*
X0122514Y0114903D01*
X0122546Y0114926D01*
X0122580Y0114946D01*
X0122616Y0114962D01*
X0122653Y0114974D01*
X0122692Y0114983D01*
X0122731Y0114988D01*
X0122770Y0114989D01*
X0122809Y0114986D01*
X0122848Y0114979D01*
X0122885Y0114968D01*
X0122922Y0114954D01*
X0122957Y0114936D01*
X0122990Y0114915D01*
X0123021Y0114890D01*
X0123049Y0114863D01*
X0123074Y0114833D01*
X0123096Y0114800D01*
X0123115Y0114766D01*
X0123130Y0114730D01*
X0123142Y0114692D01*
X0123150Y0114654D01*
X0123154Y0114615D01*
X0123154Y0114575D01*
X0123150Y0114536D01*
X0123142Y0114498D01*
X0123130Y0114460D01*
X0123115Y0114424D01*
X0123096Y0114390D01*
X0123074Y0114357D01*
X0123049Y0114327D01*
X0123021Y0114300D01*
X0122990Y0114275D01*
X0122957Y0114254D01*
X0122922Y0114236D01*
X0122885Y0114222D01*
X0122848Y0114211D01*
X0122809Y0114204D01*
X0122770Y0114201D01*
X0122731Y0114202D01*
X0122692Y0114207D01*
X0122653Y0114216D01*
X0122616Y0114228D01*
X0122580Y0114244D01*
X0122546Y0114264D01*
X0122514Y0114287D01*
X0122485Y0114313D01*
X0122458Y0114342D01*
X0122434Y0114373D01*
X0122414Y0114407D01*
X0122397Y0114442D01*
X0122384Y0114479D01*
X0122374Y0114517D01*
X0122368Y0114556D01*
X0122366Y0114595D01*
X0122523Y0113414D02*
X0122525Y0113453D01*
X0122531Y0113492D01*
X0122541Y0113530D01*
X0122554Y0113567D01*
X0122571Y0113602D01*
X0122591Y0113636D01*
X0122615Y0113667D01*
X0122642Y0113696D01*
X0122671Y0113722D01*
X0122703Y0113745D01*
X0122737Y0113765D01*
X0122773Y0113781D01*
X0122810Y0113793D01*
X0122849Y0113802D01*
X0122888Y0113807D01*
X0122927Y0113808D01*
X0122966Y0113805D01*
X0123005Y0113798D01*
X0123042Y0113787D01*
X0123079Y0113773D01*
X0123114Y0113755D01*
X0123147Y0113734D01*
X0123178Y0113709D01*
X0123206Y0113682D01*
X0123231Y0113652D01*
X0123253Y0113619D01*
X0123272Y0113585D01*
X0123287Y0113549D01*
X0123299Y0113511D01*
X0123307Y0113473D01*
X0123311Y0113434D01*
X0123311Y0113394D01*
X0123307Y0113355D01*
X0123299Y0113317D01*
X0123287Y0113279D01*
X0123272Y0113243D01*
X0123253Y0113209D01*
X0123231Y0113176D01*
X0123206Y0113146D01*
X0123178Y0113119D01*
X0123147Y0113094D01*
X0123114Y0113073D01*
X0123079Y0113055D01*
X0123042Y0113041D01*
X0123005Y0113030D01*
X0122966Y0113023D01*
X0122927Y0113020D01*
X0122888Y0113021D01*
X0122849Y0113026D01*
X0122810Y0113035D01*
X0122773Y0113047D01*
X0122737Y0113063D01*
X0122703Y0113083D01*
X0122671Y0113106D01*
X0122642Y0113132D01*
X0122615Y0113161D01*
X0122591Y0113192D01*
X0122571Y0113226D01*
X0122554Y0113261D01*
X0122541Y0113298D01*
X0122531Y0113336D01*
X0122525Y0113375D01*
X0122523Y0113414D01*
X0148941Y0128375D02*
X0148943Y0128414D01*
X0148949Y0128453D01*
X0148959Y0128491D01*
X0148972Y0128528D01*
X0148989Y0128563D01*
X0149009Y0128597D01*
X0149033Y0128628D01*
X0149060Y0128657D01*
X0149089Y0128683D01*
X0149121Y0128706D01*
X0149155Y0128726D01*
X0149191Y0128742D01*
X0149228Y0128754D01*
X0149267Y0128763D01*
X0149306Y0128768D01*
X0149345Y0128769D01*
X0149384Y0128766D01*
X0149423Y0128759D01*
X0149460Y0128748D01*
X0149497Y0128734D01*
X0149532Y0128716D01*
X0149565Y0128695D01*
X0149596Y0128670D01*
X0149624Y0128643D01*
X0149649Y0128613D01*
X0149671Y0128580D01*
X0149690Y0128546D01*
X0149705Y0128510D01*
X0149717Y0128472D01*
X0149725Y0128434D01*
X0149729Y0128395D01*
X0149729Y0128355D01*
X0149725Y0128316D01*
X0149717Y0128278D01*
X0149705Y0128240D01*
X0149690Y0128204D01*
X0149671Y0128170D01*
X0149649Y0128137D01*
X0149624Y0128107D01*
X0149596Y0128080D01*
X0149565Y0128055D01*
X0149532Y0128034D01*
X0149497Y0128016D01*
X0149460Y0128002D01*
X0149423Y0127991D01*
X0149384Y0127984D01*
X0149345Y0127981D01*
X0149306Y0127982D01*
X0149267Y0127987D01*
X0149228Y0127996D01*
X0149191Y0128008D01*
X0149155Y0128024D01*
X0149121Y0128044D01*
X0149089Y0128067D01*
X0149060Y0128093D01*
X0149033Y0128122D01*
X0149009Y0128153D01*
X0148989Y0128187D01*
X0148972Y0128222D01*
X0148959Y0128259D01*
X0148949Y0128297D01*
X0148943Y0128336D01*
X0148941Y0128375D01*
X0095949Y0155737D02*
X0095951Y0155776D01*
X0095957Y0155815D01*
X0095967Y0155853D01*
X0095980Y0155890D01*
X0095997Y0155925D01*
X0096017Y0155959D01*
X0096041Y0155990D01*
X0096068Y0156019D01*
X0096097Y0156045D01*
X0096129Y0156068D01*
X0096163Y0156088D01*
X0096199Y0156104D01*
X0096236Y0156116D01*
X0096275Y0156125D01*
X0096314Y0156130D01*
X0096353Y0156131D01*
X0096392Y0156128D01*
X0096431Y0156121D01*
X0096468Y0156110D01*
X0096505Y0156096D01*
X0096540Y0156078D01*
X0096573Y0156057D01*
X0096604Y0156032D01*
X0096632Y0156005D01*
X0096657Y0155975D01*
X0096679Y0155942D01*
X0096698Y0155908D01*
X0096713Y0155872D01*
X0096725Y0155834D01*
X0096733Y0155796D01*
X0096737Y0155757D01*
X0096737Y0155717D01*
X0096733Y0155678D01*
X0096725Y0155640D01*
X0096713Y0155602D01*
X0096698Y0155566D01*
X0096679Y0155532D01*
X0096657Y0155499D01*
X0096632Y0155469D01*
X0096604Y0155442D01*
X0096573Y0155417D01*
X0096540Y0155396D01*
X0096505Y0155378D01*
X0096468Y0155364D01*
X0096431Y0155353D01*
X0096392Y0155346D01*
X0096353Y0155343D01*
X0096314Y0155344D01*
X0096275Y0155349D01*
X0096236Y0155358D01*
X0096199Y0155370D01*
X0096163Y0155386D01*
X0096129Y0155406D01*
X0096097Y0155429D01*
X0096068Y0155455D01*
X0096041Y0155484D01*
X0096017Y0155515D01*
X0095997Y0155549D01*
X0095980Y0155584D01*
X0095967Y0155621D01*
X0095957Y0155659D01*
X0095951Y0155698D01*
X0095949Y0155737D01*
X0069374Y0155737D02*
X0069376Y0155776D01*
X0069382Y0155815D01*
X0069392Y0155853D01*
X0069405Y0155890D01*
X0069422Y0155925D01*
X0069442Y0155959D01*
X0069466Y0155990D01*
X0069493Y0156019D01*
X0069522Y0156045D01*
X0069554Y0156068D01*
X0069588Y0156088D01*
X0069624Y0156104D01*
X0069661Y0156116D01*
X0069700Y0156125D01*
X0069739Y0156130D01*
X0069778Y0156131D01*
X0069817Y0156128D01*
X0069856Y0156121D01*
X0069893Y0156110D01*
X0069930Y0156096D01*
X0069965Y0156078D01*
X0069998Y0156057D01*
X0070029Y0156032D01*
X0070057Y0156005D01*
X0070082Y0155975D01*
X0070104Y0155942D01*
X0070123Y0155908D01*
X0070138Y0155872D01*
X0070150Y0155834D01*
X0070158Y0155796D01*
X0070162Y0155757D01*
X0070162Y0155717D01*
X0070158Y0155678D01*
X0070150Y0155640D01*
X0070138Y0155602D01*
X0070123Y0155566D01*
X0070104Y0155532D01*
X0070082Y0155499D01*
X0070057Y0155469D01*
X0070029Y0155442D01*
X0069998Y0155417D01*
X0069965Y0155396D01*
X0069930Y0155378D01*
X0069893Y0155364D01*
X0069856Y0155353D01*
X0069817Y0155346D01*
X0069778Y0155343D01*
X0069739Y0155344D01*
X0069700Y0155349D01*
X0069661Y0155358D01*
X0069624Y0155370D01*
X0069588Y0155386D01*
X0069554Y0155406D01*
X0069522Y0155429D01*
X0069493Y0155455D01*
X0069466Y0155484D01*
X0069442Y0155515D01*
X0069422Y0155549D01*
X0069405Y0155584D01*
X0069392Y0155621D01*
X0069382Y0155659D01*
X0069376Y0155698D01*
X0069374Y0155737D01*
X0042799Y0168532D02*
X0042801Y0168571D01*
X0042807Y0168610D01*
X0042817Y0168648D01*
X0042830Y0168685D01*
X0042847Y0168720D01*
X0042867Y0168754D01*
X0042891Y0168785D01*
X0042918Y0168814D01*
X0042947Y0168840D01*
X0042979Y0168863D01*
X0043013Y0168883D01*
X0043049Y0168899D01*
X0043086Y0168911D01*
X0043125Y0168920D01*
X0043164Y0168925D01*
X0043203Y0168926D01*
X0043242Y0168923D01*
X0043281Y0168916D01*
X0043318Y0168905D01*
X0043355Y0168891D01*
X0043390Y0168873D01*
X0043423Y0168852D01*
X0043454Y0168827D01*
X0043482Y0168800D01*
X0043507Y0168770D01*
X0043529Y0168737D01*
X0043548Y0168703D01*
X0043563Y0168667D01*
X0043575Y0168629D01*
X0043583Y0168591D01*
X0043587Y0168552D01*
X0043587Y0168512D01*
X0043583Y0168473D01*
X0043575Y0168435D01*
X0043563Y0168397D01*
X0043548Y0168361D01*
X0043529Y0168327D01*
X0043507Y0168294D01*
X0043482Y0168264D01*
X0043454Y0168237D01*
X0043423Y0168212D01*
X0043390Y0168191D01*
X0043355Y0168173D01*
X0043318Y0168159D01*
X0043281Y0168148D01*
X0043242Y0168141D01*
X0043203Y0168138D01*
X0043164Y0168139D01*
X0043125Y0168144D01*
X0043086Y0168153D01*
X0043049Y0168165D01*
X0043013Y0168181D01*
X0042979Y0168201D01*
X0042947Y0168224D01*
X0042918Y0168250D01*
X0042891Y0168279D01*
X0042867Y0168310D01*
X0042847Y0168344D01*
X0042830Y0168379D01*
X0042817Y0168416D01*
X0042807Y0168454D01*
X0042801Y0168493D01*
X0042799Y0168532D01*
X0122523Y0168532D02*
X0122525Y0168571D01*
X0122531Y0168610D01*
X0122541Y0168648D01*
X0122554Y0168685D01*
X0122571Y0168720D01*
X0122591Y0168754D01*
X0122615Y0168785D01*
X0122642Y0168814D01*
X0122671Y0168840D01*
X0122703Y0168863D01*
X0122737Y0168883D01*
X0122773Y0168899D01*
X0122810Y0168911D01*
X0122849Y0168920D01*
X0122888Y0168925D01*
X0122927Y0168926D01*
X0122966Y0168923D01*
X0123005Y0168916D01*
X0123042Y0168905D01*
X0123079Y0168891D01*
X0123114Y0168873D01*
X0123147Y0168852D01*
X0123178Y0168827D01*
X0123206Y0168800D01*
X0123231Y0168770D01*
X0123253Y0168737D01*
X0123272Y0168703D01*
X0123287Y0168667D01*
X0123299Y0168629D01*
X0123307Y0168591D01*
X0123311Y0168552D01*
X0123311Y0168512D01*
X0123307Y0168473D01*
X0123299Y0168435D01*
X0123287Y0168397D01*
X0123272Y0168361D01*
X0123253Y0168327D01*
X0123231Y0168294D01*
X0123206Y0168264D01*
X0123178Y0168237D01*
X0123147Y0168212D01*
X0123114Y0168191D01*
X0123079Y0168173D01*
X0123042Y0168159D01*
X0123005Y0168148D01*
X0122966Y0168141D01*
X0122927Y0168138D01*
X0122888Y0168139D01*
X0122849Y0168144D01*
X0122810Y0168153D01*
X0122773Y0168165D01*
X0122737Y0168181D01*
X0122703Y0168201D01*
X0122671Y0168224D01*
X0122642Y0168250D01*
X0122615Y0168279D01*
X0122591Y0168310D01*
X0122571Y0168344D01*
X0122554Y0168379D01*
X0122541Y0168416D01*
X0122531Y0168454D01*
X0122525Y0168493D01*
X0122523Y0168532D01*
X0069216Y0073257D02*
X0069218Y0073296D01*
X0069224Y0073335D01*
X0069234Y0073373D01*
X0069247Y0073410D01*
X0069264Y0073445D01*
X0069284Y0073479D01*
X0069308Y0073510D01*
X0069335Y0073539D01*
X0069364Y0073565D01*
X0069396Y0073588D01*
X0069430Y0073608D01*
X0069466Y0073624D01*
X0069503Y0073636D01*
X0069542Y0073645D01*
X0069581Y0073650D01*
X0069620Y0073651D01*
X0069659Y0073648D01*
X0069698Y0073641D01*
X0069735Y0073630D01*
X0069772Y0073616D01*
X0069807Y0073598D01*
X0069840Y0073577D01*
X0069871Y0073552D01*
X0069899Y0073525D01*
X0069924Y0073495D01*
X0069946Y0073462D01*
X0069965Y0073428D01*
X0069980Y0073392D01*
X0069992Y0073354D01*
X0070000Y0073316D01*
X0070004Y0073277D01*
X0070004Y0073237D01*
X0070000Y0073198D01*
X0069992Y0073160D01*
X0069980Y0073122D01*
X0069965Y0073086D01*
X0069946Y0073052D01*
X0069924Y0073019D01*
X0069899Y0072989D01*
X0069871Y0072962D01*
X0069840Y0072937D01*
X0069807Y0072916D01*
X0069772Y0072898D01*
X0069735Y0072884D01*
X0069698Y0072873D01*
X0069659Y0072866D01*
X0069620Y0072863D01*
X0069581Y0072864D01*
X0069542Y0072869D01*
X0069503Y0072878D01*
X0069466Y0072890D01*
X0069430Y0072906D01*
X0069396Y0072926D01*
X0069364Y0072949D01*
X0069335Y0072975D01*
X0069308Y0073004D01*
X0069284Y0073035D01*
X0069264Y0073069D01*
X0069247Y0073104D01*
X0069234Y0073141D01*
X0069224Y0073179D01*
X0069218Y0073218D01*
X0069216Y0073257D01*
X0042799Y0058296D02*
X0042801Y0058335D01*
X0042807Y0058374D01*
X0042817Y0058412D01*
X0042830Y0058449D01*
X0042847Y0058484D01*
X0042867Y0058518D01*
X0042891Y0058549D01*
X0042918Y0058578D01*
X0042947Y0058604D01*
X0042979Y0058627D01*
X0043013Y0058647D01*
X0043049Y0058663D01*
X0043086Y0058675D01*
X0043125Y0058684D01*
X0043164Y0058689D01*
X0043203Y0058690D01*
X0043242Y0058687D01*
X0043281Y0058680D01*
X0043318Y0058669D01*
X0043355Y0058655D01*
X0043390Y0058637D01*
X0043423Y0058616D01*
X0043454Y0058591D01*
X0043482Y0058564D01*
X0043507Y0058534D01*
X0043529Y0058501D01*
X0043548Y0058467D01*
X0043563Y0058431D01*
X0043575Y0058393D01*
X0043583Y0058355D01*
X0043587Y0058316D01*
X0043587Y0058276D01*
X0043583Y0058237D01*
X0043575Y0058199D01*
X0043563Y0058161D01*
X0043548Y0058125D01*
X0043529Y0058091D01*
X0043507Y0058058D01*
X0043482Y0058028D01*
X0043454Y0058001D01*
X0043423Y0057976D01*
X0043390Y0057955D01*
X0043355Y0057937D01*
X0043318Y0057923D01*
X0043281Y0057912D01*
X0043242Y0057905D01*
X0043203Y0057902D01*
X0043164Y0057903D01*
X0043125Y0057908D01*
X0043086Y0057917D01*
X0043049Y0057929D01*
X0043013Y0057945D01*
X0042979Y0057965D01*
X0042947Y0057988D01*
X0042918Y0058014D01*
X0042891Y0058043D01*
X0042867Y0058074D01*
X0042847Y0058108D01*
X0042830Y0058143D01*
X0042817Y0058180D01*
X0042807Y0058218D01*
X0042801Y0058257D01*
X0042799Y0058296D01*
D11*
X0073134Y0028375D02*
X0092819Y0028375D01*
X0099709Y0028375D02*
X0119394Y0028375D01*
X0126283Y0042154D02*
X0145969Y0042154D01*
X0119394Y0048060D02*
X0099709Y0048060D01*
X0092819Y0048060D02*
X0073134Y0048060D01*
X0066244Y0042154D02*
X0046559Y0042154D01*
X0073134Y0055934D02*
X0092819Y0055934D01*
X0099709Y0055934D02*
X0119394Y0055934D01*
X0126283Y0061839D02*
X0145969Y0061839D01*
X0145969Y0069713D02*
X0126283Y0069713D01*
X0119394Y0075619D02*
X0099709Y0075619D01*
X0092819Y0075619D02*
X0073134Y0075619D01*
X0066244Y0069713D02*
X0046559Y0069713D01*
X0046559Y0061839D02*
X0066244Y0061839D01*
X0073134Y0083493D02*
X0092819Y0083493D01*
X0099709Y0083493D02*
X0119394Y0083493D01*
X0126283Y0089398D02*
X0145969Y0089398D01*
X0145969Y0097272D02*
X0126283Y0097272D01*
X0119394Y0103178D02*
X0099709Y0103178D01*
X0092819Y0103178D02*
X0073134Y0103178D01*
X0073134Y0111052D02*
X0092819Y0111052D01*
X0099709Y0111052D02*
X0119394Y0111052D01*
X0126283Y0116957D02*
X0145969Y0116957D01*
X0145969Y0124831D02*
X0126283Y0124831D01*
X0119394Y0130737D02*
X0099709Y0130737D01*
X0092819Y0130737D02*
X0073134Y0130737D01*
X0066244Y0124831D02*
X0046559Y0124831D01*
X0046559Y0116957D02*
X0066244Y0116957D01*
X0030250Y0117373D02*
X0025746Y0117373D01*
X0027247Y0115871D01*
X0026497Y0114270D02*
X0027998Y0114270D01*
X0028749Y0113519D01*
X0028749Y0111267D01*
X0030250Y0111267D02*
X0025746Y0111267D01*
X0025746Y0113519D01*
X0026497Y0114270D01*
X0030250Y0115871D02*
X0030250Y0118874D01*
X0025746Y0109666D02*
X0025746Y0108165D01*
X0025746Y0108915D02*
X0029499Y0108915D01*
X0030250Y0108165D01*
X0030250Y0107414D01*
X0029499Y0106663D01*
X0012150Y0104153D02*
X0012150Y0101884D01*
X0009881Y0104153D01*
X0009314Y0104153D01*
X0008747Y0103586D01*
X0008747Y0102451D01*
X0009314Y0101884D01*
X0009314Y0094153D02*
X0009881Y0094153D01*
X0010449Y0093586D01*
X0011016Y0094153D01*
X0011583Y0094153D01*
X0012150Y0093586D01*
X0012150Y0092451D01*
X0011583Y0091884D01*
X0010449Y0093018D02*
X0010449Y0093586D01*
X0009314Y0094153D02*
X0008747Y0093586D01*
X0008747Y0092451D01*
X0009314Y0091884D01*
X0010449Y0084153D02*
X0010449Y0081884D01*
X0008747Y0083586D01*
X0012150Y0083586D01*
X0046559Y0089398D02*
X0066244Y0089398D01*
X0066244Y0097272D02*
X0046559Y0097272D01*
X0012150Y0111884D02*
X0012150Y0114153D01*
X0012150Y0113018D02*
X0008747Y0113018D01*
X0009881Y0111884D01*
X0073134Y0139595D02*
X0092819Y0139595D01*
X0099709Y0139595D02*
X0119394Y0139595D01*
X0126283Y0144517D02*
X0145969Y0144517D01*
X0145969Y0152391D02*
X0126283Y0152391D01*
X0119394Y0159280D02*
X0099709Y0159280D01*
X0092819Y0159280D02*
X0073134Y0159280D01*
X0066244Y0152391D02*
X0046559Y0152391D01*
X0046559Y0144517D02*
X0066244Y0144517D01*
X0066244Y0172076D02*
X0046559Y0172076D01*
X0109514Y0190966D02*
X0110264Y0190215D01*
X0111766Y0190215D01*
X0112516Y0190966D01*
X0114118Y0190215D02*
X0117120Y0193218D01*
X0117120Y0193969D01*
X0116370Y0194719D01*
X0114868Y0194719D01*
X0114118Y0193969D01*
X0112516Y0193969D02*
X0111766Y0194719D01*
X0110264Y0194719D01*
X0109514Y0193969D01*
X0109514Y0190966D01*
X0114118Y0190215D02*
X0117120Y0190215D01*
X0118722Y0190215D02*
X0121724Y0190215D01*
X0120223Y0190215D02*
X0120223Y0194719D01*
X0118722Y0193218D01*
X0126283Y0172076D02*
X0145969Y0172076D01*
X0179390Y0117177D02*
X0181092Y0115475D01*
X0181092Y0117744D01*
X0182793Y0117177D02*
X0179390Y0117177D01*
X0179958Y0107744D02*
X0180525Y0107744D01*
X0181092Y0107177D01*
X0181659Y0107744D01*
X0182226Y0107744D01*
X0182793Y0107177D01*
X0182793Y0106042D01*
X0182226Y0105475D01*
X0181092Y0106609D02*
X0181092Y0107177D01*
X0179958Y0107744D02*
X0179390Y0107177D01*
X0179390Y0106042D01*
X0179958Y0105475D01*
X0179958Y0097744D02*
X0179390Y0097177D01*
X0179390Y0096042D01*
X0179958Y0095475D01*
X0179958Y0097744D02*
X0180525Y0097744D01*
X0182793Y0095475D01*
X0182793Y0097744D01*
X0165793Y0091935D02*
X0161289Y0091935D01*
X0163541Y0089683D01*
X0163541Y0092686D01*
X0163541Y0088082D02*
X0164292Y0087331D01*
X0164292Y0085079D01*
X0165793Y0085079D02*
X0161289Y0085079D01*
X0161289Y0087331D01*
X0162040Y0088082D01*
X0163541Y0088082D01*
X0161289Y0083478D02*
X0161289Y0081976D01*
X0161289Y0082727D02*
X0165043Y0082727D01*
X0165793Y0081976D01*
X0165793Y0081226D01*
X0165043Y0080475D01*
X0179390Y0086609D02*
X0182793Y0086609D01*
X0182793Y0085475D02*
X0182793Y0087744D01*
X0180525Y0085475D02*
X0179390Y0086609D01*
D12*
X0148571Y0066781D02*
X0147804Y0067549D01*
X0146269Y0067549D01*
X0145502Y0066781D01*
X0147036Y0065247D02*
X0147804Y0065247D01*
X0148571Y0064480D01*
X0148571Y0063712D01*
X0147804Y0062945D01*
X0146269Y0062945D01*
X0145502Y0063712D01*
X0143967Y0062945D02*
X0140898Y0062945D01*
X0142432Y0062945D02*
X0142432Y0067549D01*
X0140898Y0066014D01*
X0139363Y0067549D02*
X0139363Y0063712D01*
X0138596Y0062945D01*
X0137061Y0062945D01*
X0136294Y0063712D01*
X0136294Y0067549D01*
X0134824Y0067844D02*
X0131754Y0064775D01*
X0132522Y0064008D01*
X0134056Y0064008D01*
X0134824Y0064775D01*
X0134824Y0067844D01*
X0134056Y0068612D01*
X0132522Y0068612D01*
X0131754Y0067844D01*
X0131754Y0064775D01*
X0130220Y0064008D02*
X0127150Y0064008D01*
X0130220Y0067077D01*
X0130220Y0067844D01*
X0129452Y0068612D01*
X0127918Y0068612D01*
X0127150Y0067844D01*
X0125616Y0068612D02*
X0125616Y0064775D01*
X0124848Y0064008D01*
X0123314Y0064008D01*
X0122546Y0064775D01*
X0122546Y0068612D01*
X0147804Y0065247D02*
X0148571Y0066014D01*
X0148571Y0066781D01*
X0121229Y0053769D02*
X0118927Y0051467D01*
X0121996Y0051467D01*
X0121229Y0049165D02*
X0121229Y0053769D01*
X0115857Y0053769D02*
X0114323Y0052235D01*
X0115857Y0053769D02*
X0115857Y0049165D01*
X0114323Y0049165D02*
X0117392Y0049165D01*
X0112788Y0049933D02*
X0112788Y0053769D01*
X0109719Y0053769D02*
X0109719Y0049933D01*
X0110486Y0049165D01*
X0112021Y0049165D01*
X0112788Y0049933D01*
X0108249Y0050996D02*
X0108249Y0054065D01*
X0107481Y0054832D01*
X0105947Y0054832D01*
X0105180Y0054065D01*
X0105180Y0053298D01*
X0105947Y0052530D01*
X0108249Y0052530D01*
X0108249Y0050996D02*
X0107481Y0050228D01*
X0105947Y0050228D01*
X0105180Y0050996D01*
X0103645Y0050228D02*
X0100576Y0050228D01*
X0102110Y0050228D02*
X0102110Y0054832D01*
X0100576Y0053298D01*
X0099041Y0054832D02*
X0099041Y0050996D01*
X0098274Y0050228D01*
X0096739Y0050228D01*
X0095972Y0050996D01*
X0095972Y0054832D01*
X0095421Y0053769D02*
X0092352Y0053769D01*
X0092352Y0051467D01*
X0093887Y0052235D01*
X0094654Y0052235D01*
X0095421Y0051467D01*
X0095421Y0049933D01*
X0094654Y0049165D01*
X0093119Y0049165D01*
X0092352Y0049933D01*
X0090817Y0049165D02*
X0087748Y0049165D01*
X0089283Y0049165D02*
X0089283Y0053769D01*
X0087748Y0052235D01*
X0086213Y0053769D02*
X0086213Y0049933D01*
X0085446Y0049165D01*
X0083911Y0049165D01*
X0083144Y0049933D01*
X0083144Y0053769D01*
X0081674Y0054065D02*
X0081674Y0053298D01*
X0080907Y0052530D01*
X0079372Y0052530D01*
X0078605Y0053298D01*
X0078605Y0054065D01*
X0079372Y0054832D01*
X0080907Y0054832D01*
X0081674Y0054065D01*
X0080907Y0052530D02*
X0081674Y0051763D01*
X0081674Y0050996D01*
X0080907Y0050228D01*
X0079372Y0050228D01*
X0078605Y0050996D01*
X0078605Y0051763D01*
X0079372Y0052530D01*
X0077070Y0050228D02*
X0074001Y0050228D01*
X0075535Y0050228D02*
X0075535Y0054832D01*
X0074001Y0053298D01*
X0072466Y0054832D02*
X0072466Y0050996D01*
X0071699Y0050228D01*
X0070164Y0050228D01*
X0069397Y0050996D01*
X0069397Y0054832D01*
X0068079Y0062945D02*
X0068846Y0063712D01*
X0068846Y0064480D01*
X0068079Y0065247D01*
X0065777Y0065247D01*
X0065777Y0063712D01*
X0066544Y0062945D01*
X0068079Y0062945D01*
X0065777Y0065247D02*
X0067312Y0066781D01*
X0068846Y0067549D01*
X0062708Y0067549D02*
X0061173Y0066014D01*
X0059639Y0067549D02*
X0059639Y0063712D01*
X0058871Y0062945D01*
X0057337Y0062945D01*
X0056569Y0063712D01*
X0056569Y0067549D01*
X0055099Y0067844D02*
X0052030Y0064775D01*
X0052030Y0064008D01*
X0050495Y0064008D02*
X0047426Y0064008D01*
X0048961Y0064008D02*
X0048961Y0068612D01*
X0047426Y0067077D01*
X0045891Y0068612D02*
X0045891Y0064775D01*
X0045124Y0064008D01*
X0043589Y0064008D01*
X0042822Y0064775D01*
X0042822Y0068612D01*
X0052030Y0068612D02*
X0055099Y0068612D01*
X0055099Y0067844D01*
X0062708Y0067549D02*
X0062708Y0062945D01*
X0061173Y0062945D02*
X0064243Y0062945D01*
X0088515Y0104283D02*
X0090050Y0104283D01*
X0090817Y0105051D01*
X0090817Y0108887D01*
X0092352Y0108887D02*
X0095421Y0108887D01*
X0095421Y0108120D01*
X0092352Y0105051D01*
X0092352Y0104283D01*
X0088515Y0104283D02*
X0087748Y0105051D01*
X0087748Y0108887D01*
X0081674Y0109183D02*
X0081674Y0106114D01*
X0080907Y0105346D01*
X0079372Y0105346D01*
X0078605Y0106114D01*
X0081674Y0109183D01*
X0080907Y0109950D01*
X0079372Y0109950D01*
X0078605Y0109183D01*
X0078605Y0106114D01*
X0077070Y0105346D02*
X0074001Y0105346D01*
X0075535Y0105346D02*
X0075535Y0109950D01*
X0074001Y0108416D01*
X0072466Y0109950D02*
X0072466Y0106114D01*
X0071699Y0105346D01*
X0070164Y0105346D01*
X0069397Y0106114D01*
X0069397Y0109950D01*
X0068079Y0118063D02*
X0066544Y0118063D01*
X0065777Y0118830D01*
X0065777Y0119598D01*
X0066544Y0120365D01*
X0068079Y0120365D01*
X0068846Y0119598D01*
X0068846Y0118830D01*
X0068079Y0118063D01*
X0068079Y0120365D02*
X0068846Y0121132D01*
X0068846Y0121900D01*
X0068079Y0122667D01*
X0066544Y0122667D01*
X0065777Y0121900D01*
X0065777Y0121132D01*
X0066544Y0120365D01*
X0064243Y0118830D02*
X0063475Y0118063D01*
X0061941Y0118063D01*
X0061173Y0118830D01*
X0061173Y0122667D01*
X0064243Y0122667D02*
X0064243Y0118830D01*
X0050495Y0119893D02*
X0050495Y0122963D01*
X0049728Y0123730D01*
X0048193Y0123730D01*
X0047426Y0122963D01*
X0047426Y0122195D01*
X0048193Y0121428D01*
X0050495Y0121428D01*
X0050495Y0119893D02*
X0049728Y0119126D01*
X0048193Y0119126D01*
X0047426Y0119893D01*
X0045891Y0119893D02*
X0045891Y0123730D01*
X0042822Y0123730D02*
X0042822Y0119893D01*
X0043589Y0119126D01*
X0045124Y0119126D01*
X0045891Y0119893D01*
X0095972Y0109950D02*
X0095972Y0106114D01*
X0096739Y0105346D01*
X0098274Y0105346D01*
X0099041Y0106114D01*
X0099041Y0109950D01*
X0100576Y0108416D02*
X0102110Y0109950D01*
X0102110Y0105346D01*
X0100576Y0105346D02*
X0103645Y0105346D01*
X0105180Y0105346D02*
X0108249Y0105346D01*
X0106714Y0105346D02*
X0106714Y0109950D01*
X0105180Y0108416D01*
X0114323Y0108887D02*
X0114323Y0105051D01*
X0115090Y0104283D01*
X0116625Y0104283D01*
X0117392Y0105051D01*
X0117392Y0108887D01*
X0118927Y0106585D02*
X0120461Y0108120D01*
X0121996Y0108887D01*
X0121229Y0106585D02*
X0118927Y0106585D01*
X0118927Y0105051D01*
X0119694Y0104283D01*
X0121229Y0104283D01*
X0121996Y0105051D01*
X0121996Y0105818D01*
X0121229Y0106585D01*
X0140898Y0118830D02*
X0141665Y0118063D01*
X0143200Y0118063D01*
X0143967Y0118830D01*
X0143967Y0122667D01*
X0145502Y0122667D02*
X0145502Y0120365D01*
X0147036Y0121132D01*
X0147804Y0121132D01*
X0148571Y0120365D01*
X0148571Y0118830D01*
X0147804Y0118063D01*
X0146269Y0118063D01*
X0145502Y0118830D01*
X0145502Y0122667D02*
X0148571Y0122667D01*
X0140898Y0122667D02*
X0140898Y0118830D01*
X0134824Y0119126D02*
X0131754Y0119126D01*
X0134824Y0122195D01*
X0134824Y0122963D01*
X0134056Y0123730D01*
X0132522Y0123730D01*
X0131754Y0122963D01*
X0128685Y0123730D02*
X0127150Y0122195D01*
X0125616Y0123730D02*
X0125616Y0119893D01*
X0124848Y0119126D01*
X0123314Y0119126D01*
X0122546Y0119893D01*
X0122546Y0123730D01*
X0128685Y0123730D02*
X0128685Y0119126D01*
X0127150Y0119126D02*
X0130220Y0119126D01*
X0102878Y0161449D02*
X0101343Y0161449D01*
X0100576Y0162216D01*
X0099041Y0162216D02*
X0099041Y0166053D01*
X0100576Y0165285D02*
X0101343Y0166053D01*
X0102878Y0166053D01*
X0103645Y0165285D01*
X0103645Y0164518D01*
X0102878Y0163751D01*
X0103645Y0162983D01*
X0103645Y0162216D01*
X0102878Y0161449D01*
X0102878Y0163751D02*
X0102110Y0163751D01*
X0099041Y0162216D02*
X0098274Y0161449D01*
X0096739Y0161449D01*
X0095972Y0162216D01*
X0095972Y0166053D01*
X0077070Y0165285D02*
X0077070Y0164518D01*
X0074001Y0161449D01*
X0077070Y0161449D01*
X0072466Y0162216D02*
X0072466Y0166053D01*
X0074001Y0165285D02*
X0074768Y0166053D01*
X0076303Y0166053D01*
X0077070Y0165285D01*
X0072466Y0162216D02*
X0071699Y0161449D01*
X0070164Y0161449D01*
X0069397Y0162216D01*
X0069397Y0166053D01*
X0050495Y0174244D02*
X0047426Y0174244D01*
X0048961Y0174244D02*
X0048961Y0178848D01*
X0047426Y0177313D01*
X0045891Y0178848D02*
X0045891Y0175011D01*
X0045124Y0174244D01*
X0043589Y0174244D01*
X0042822Y0175011D01*
X0042822Y0178848D01*
X0122546Y0178848D02*
X0122546Y0175011D01*
X0123314Y0174244D01*
X0124848Y0174244D01*
X0125616Y0175011D01*
X0125616Y0178848D01*
X0127150Y0176546D02*
X0130220Y0176546D01*
X0129452Y0174244D02*
X0129452Y0178848D01*
X0127150Y0176546D01*
D13*
X0080264Y0178965D02*
X0080269Y0179358D01*
X0080283Y0179750D01*
X0080307Y0180142D01*
X0080341Y0180533D01*
X0080384Y0180924D01*
X0080437Y0181313D01*
X0080500Y0181700D01*
X0080571Y0182086D01*
X0080653Y0182471D01*
X0080743Y0182853D01*
X0080844Y0183232D01*
X0080953Y0183610D01*
X0081072Y0183984D01*
X0081199Y0184355D01*
X0081336Y0184723D01*
X0081482Y0185088D01*
X0081637Y0185449D01*
X0081800Y0185806D01*
X0081972Y0186159D01*
X0082153Y0186507D01*
X0082343Y0186851D01*
X0082540Y0187191D01*
X0082746Y0187525D01*
X0082960Y0187854D01*
X0083183Y0188178D01*
X0083413Y0188496D01*
X0083650Y0188809D01*
X0083896Y0189115D01*
X0084149Y0189416D01*
X0084409Y0189710D01*
X0084676Y0189998D01*
X0084950Y0190279D01*
X0085231Y0190553D01*
X0085519Y0190820D01*
X0085813Y0191080D01*
X0086114Y0191333D01*
X0086420Y0191579D01*
X0086733Y0191816D01*
X0087051Y0192046D01*
X0087375Y0192269D01*
X0087704Y0192483D01*
X0088038Y0192689D01*
X0088378Y0192886D01*
X0088722Y0193076D01*
X0089070Y0193257D01*
X0089423Y0193429D01*
X0089780Y0193592D01*
X0090141Y0193747D01*
X0090506Y0193893D01*
X0090874Y0194030D01*
X0091245Y0194157D01*
X0091619Y0194276D01*
X0091997Y0194385D01*
X0092376Y0194486D01*
X0092758Y0194576D01*
X0093143Y0194658D01*
X0093529Y0194729D01*
X0093916Y0194792D01*
X0094305Y0194845D01*
X0094696Y0194888D01*
X0095087Y0194922D01*
X0095479Y0194946D01*
X0095871Y0194960D01*
X0096264Y0194965D01*
X0096657Y0194960D01*
X0097049Y0194946D01*
X0097441Y0194922D01*
X0097832Y0194888D01*
X0098223Y0194845D01*
X0098612Y0194792D01*
X0098999Y0194729D01*
X0099385Y0194658D01*
X0099770Y0194576D01*
X0100152Y0194486D01*
X0100531Y0194385D01*
X0100909Y0194276D01*
X0101283Y0194157D01*
X0101654Y0194030D01*
X0102022Y0193893D01*
X0102387Y0193747D01*
X0102748Y0193592D01*
X0103105Y0193429D01*
X0103458Y0193257D01*
X0103806Y0193076D01*
X0104150Y0192886D01*
X0104490Y0192689D01*
X0104824Y0192483D01*
X0105153Y0192269D01*
X0105477Y0192046D01*
X0105795Y0191816D01*
X0106108Y0191579D01*
X0106414Y0191333D01*
X0106715Y0191080D01*
X0107009Y0190820D01*
X0107297Y0190553D01*
X0107578Y0190279D01*
X0107852Y0189998D01*
X0108119Y0189710D01*
X0108379Y0189416D01*
X0108632Y0189115D01*
X0108878Y0188809D01*
X0109115Y0188496D01*
X0109345Y0188178D01*
X0109568Y0187854D01*
X0109782Y0187525D01*
X0109988Y0187191D01*
X0110185Y0186851D01*
X0110375Y0186507D01*
X0110556Y0186159D01*
X0110728Y0185806D01*
X0110891Y0185449D01*
X0111046Y0185088D01*
X0111192Y0184723D01*
X0111329Y0184355D01*
X0111456Y0183984D01*
X0111575Y0183610D01*
X0111684Y0183232D01*
X0111785Y0182853D01*
X0111875Y0182471D01*
X0111957Y0182086D01*
X0112028Y0181700D01*
X0112091Y0181313D01*
X0112144Y0180924D01*
X0112187Y0180533D01*
X0112221Y0180142D01*
X0112245Y0179750D01*
X0112259Y0179358D01*
X0112264Y0178965D01*
X0112259Y0178572D01*
X0112245Y0178180D01*
X0112221Y0177788D01*
X0112187Y0177397D01*
X0112144Y0177006D01*
X0112091Y0176617D01*
X0112028Y0176230D01*
X0111957Y0175844D01*
X0111875Y0175459D01*
X0111785Y0175077D01*
X0111684Y0174698D01*
X0111575Y0174320D01*
X0111456Y0173946D01*
X0111329Y0173575D01*
X0111192Y0173207D01*
X0111046Y0172842D01*
X0110891Y0172481D01*
X0110728Y0172124D01*
X0110556Y0171771D01*
X0110375Y0171423D01*
X0110185Y0171079D01*
X0109988Y0170739D01*
X0109782Y0170405D01*
X0109568Y0170076D01*
X0109345Y0169752D01*
X0109115Y0169434D01*
X0108878Y0169121D01*
X0108632Y0168815D01*
X0108379Y0168514D01*
X0108119Y0168220D01*
X0107852Y0167932D01*
X0107578Y0167651D01*
X0107297Y0167377D01*
X0107009Y0167110D01*
X0106715Y0166850D01*
X0106414Y0166597D01*
X0106108Y0166351D01*
X0105795Y0166114D01*
X0105477Y0165884D01*
X0105153Y0165661D01*
X0104824Y0165447D01*
X0104490Y0165241D01*
X0104150Y0165044D01*
X0103806Y0164854D01*
X0103458Y0164673D01*
X0103105Y0164501D01*
X0102748Y0164338D01*
X0102387Y0164183D01*
X0102022Y0164037D01*
X0101654Y0163900D01*
X0101283Y0163773D01*
X0100909Y0163654D01*
X0100531Y0163545D01*
X0100152Y0163444D01*
X0099770Y0163354D01*
X0099385Y0163272D01*
X0098999Y0163201D01*
X0098612Y0163138D01*
X0098223Y0163085D01*
X0097832Y0163042D01*
X0097441Y0163008D01*
X0097049Y0162984D01*
X0096657Y0162970D01*
X0096264Y0162965D01*
X0095871Y0162970D01*
X0095479Y0162984D01*
X0095087Y0163008D01*
X0094696Y0163042D01*
X0094305Y0163085D01*
X0093916Y0163138D01*
X0093529Y0163201D01*
X0093143Y0163272D01*
X0092758Y0163354D01*
X0092376Y0163444D01*
X0091997Y0163545D01*
X0091619Y0163654D01*
X0091245Y0163773D01*
X0090874Y0163900D01*
X0090506Y0164037D01*
X0090141Y0164183D01*
X0089780Y0164338D01*
X0089423Y0164501D01*
X0089070Y0164673D01*
X0088722Y0164854D01*
X0088378Y0165044D01*
X0088038Y0165241D01*
X0087704Y0165447D01*
X0087375Y0165661D01*
X0087051Y0165884D01*
X0086733Y0166114D01*
X0086420Y0166351D01*
X0086114Y0166597D01*
X0085813Y0166850D01*
X0085519Y0167110D01*
X0085231Y0167377D01*
X0084950Y0167651D01*
X0084676Y0167932D01*
X0084409Y0168220D01*
X0084149Y0168514D01*
X0083896Y0168815D01*
X0083650Y0169121D01*
X0083413Y0169434D01*
X0083183Y0169752D01*
X0082960Y0170076D01*
X0082746Y0170405D01*
X0082540Y0170739D01*
X0082343Y0171079D01*
X0082153Y0171423D01*
X0081972Y0171771D01*
X0081800Y0172124D01*
X0081637Y0172481D01*
X0081482Y0172842D01*
X0081336Y0173207D01*
X0081199Y0173575D01*
X0081072Y0173946D01*
X0080953Y0174320D01*
X0080844Y0174698D01*
X0080743Y0175077D01*
X0080653Y0175459D01*
X0080571Y0175844D01*
X0080500Y0176230D01*
X0080437Y0176617D01*
X0080384Y0177006D01*
X0080341Y0177397D01*
X0080307Y0177788D01*
X0080283Y0178180D01*
X0080269Y0178572D01*
X0080264Y0178965D01*
X0084264Y0181965D02*
X0084264Y0184965D01*
X0082764Y0183465D02*
X0085764Y0183465D01*
X0023000Y0120225D02*
X0015000Y0120225D01*
X0014000Y0119225D01*
X0014000Y0111225D01*
X0015000Y0110225D01*
X0014000Y0109225D01*
X0014000Y0101225D01*
X0015000Y0100225D01*
X0014000Y0099225D01*
X0014000Y0091225D01*
X0015000Y0090225D01*
X0014000Y0089225D01*
X0014000Y0081225D01*
X0015000Y0080225D01*
X0023000Y0080225D01*
X0024000Y0081225D01*
X0024000Y0089225D01*
X0023000Y0090225D01*
X0024000Y0091225D01*
X0024000Y0099225D01*
X0023000Y0100225D01*
X0024000Y0101225D01*
X0024000Y0109225D01*
X0023000Y0110225D01*
X0024000Y0111225D01*
X0024000Y0119225D01*
X0023000Y0120225D01*
X0167543Y0119225D02*
X0167543Y0111225D01*
X0168543Y0110225D01*
X0167543Y0109225D01*
X0167543Y0101225D01*
X0168543Y0100225D01*
X0167543Y0099225D01*
X0167543Y0091225D01*
X0168543Y0090225D01*
X0167543Y0089225D01*
X0167543Y0081225D01*
X0168543Y0080225D01*
X0176543Y0080225D01*
X0177543Y0081225D01*
X0177543Y0089225D01*
X0176543Y0090225D01*
X0177543Y0091225D01*
X0177543Y0099225D01*
X0176543Y0100225D01*
X0177543Y0101225D01*
X0177543Y0109225D01*
X0176543Y0110225D01*
X0177543Y0111225D01*
X0177543Y0119225D01*
X0176543Y0120225D01*
X0168543Y0120225D01*
X0167543Y0119225D01*
M02*
