G75*
%MOIN*%
%OFA0B0*%
%FSLAX25Y25*%
%IPPOS*%
%LPD*%
%AMOC8*
5,1,8,0,0,1.08239X$1,22.5*
%
%ADD10C,0.01214*%
%ADD11C,0.06400*%
%ADD12OC8,0.07100*%
%ADD13C,0.07100*%
%ADD14OC8,0.04762*%
D10*
X0071944Y0030098D02*
X0077080Y0030098D01*
X0071944Y0030098D02*
X0071944Y0033738D01*
X0077080Y0033738D01*
X0077080Y0030098D01*
X0077080Y0031311D02*
X0071944Y0031311D01*
X0071944Y0032524D02*
X0077080Y0032524D01*
X0077080Y0033737D02*
X0071944Y0033737D01*
X0071944Y0036397D02*
X0077080Y0036397D01*
X0071944Y0036397D02*
X0071944Y0040037D01*
X0077080Y0040037D01*
X0077080Y0036397D01*
X0077080Y0037610D02*
X0071944Y0037610D01*
X0071944Y0038823D02*
X0077080Y0038823D01*
X0077080Y0040036D02*
X0071944Y0040036D01*
X0071944Y0042697D02*
X0077080Y0042697D01*
X0071944Y0042697D02*
X0071944Y0046337D01*
X0077080Y0046337D01*
X0077080Y0042697D01*
X0077080Y0043910D02*
X0071944Y0043910D01*
X0071944Y0045123D02*
X0077080Y0045123D01*
X0077080Y0046336D02*
X0071944Y0046336D01*
X0067434Y0043878D02*
X0062298Y0043878D01*
X0062298Y0047518D01*
X0067434Y0047518D01*
X0067434Y0043878D01*
X0067434Y0045091D02*
X0062298Y0045091D01*
X0062298Y0046304D02*
X0067434Y0046304D01*
X0067434Y0047517D02*
X0062298Y0047517D01*
X0062298Y0050177D02*
X0067434Y0050177D01*
X0062298Y0050177D02*
X0062298Y0053817D01*
X0067434Y0053817D01*
X0067434Y0050177D01*
X0067434Y0051390D02*
X0062298Y0051390D01*
X0062298Y0052603D02*
X0067434Y0052603D01*
X0067434Y0053816D02*
X0062298Y0053816D01*
X0062298Y0056476D02*
X0067434Y0056476D01*
X0062298Y0056476D02*
X0062298Y0060116D01*
X0067434Y0060116D01*
X0067434Y0056476D01*
X0067434Y0057689D02*
X0062298Y0057689D01*
X0062298Y0058902D02*
X0067434Y0058902D01*
X0067434Y0060115D02*
X0062298Y0060115D01*
X0071944Y0061297D02*
X0077080Y0061297D01*
X0077080Y0057657D01*
X0071944Y0057657D01*
X0071944Y0061297D01*
X0071944Y0058870D02*
X0077080Y0058870D01*
X0077080Y0060083D02*
X0071944Y0060083D01*
X0071944Y0061296D02*
X0077080Y0061296D01*
X0077080Y0067596D02*
X0071944Y0067596D01*
X0077080Y0067596D02*
X0077080Y0063956D01*
X0071944Y0063956D01*
X0071944Y0067596D01*
X0071944Y0065169D02*
X0077080Y0065169D01*
X0077080Y0066382D02*
X0071944Y0066382D01*
X0071944Y0067595D02*
X0077080Y0067595D01*
X0077080Y0073896D02*
X0071944Y0073896D01*
X0077080Y0073896D02*
X0077080Y0070256D01*
X0071944Y0070256D01*
X0071944Y0073896D01*
X0071944Y0071469D02*
X0077080Y0071469D01*
X0077080Y0072682D02*
X0071944Y0072682D01*
X0071944Y0073895D02*
X0077080Y0073895D01*
X0067434Y0075077D02*
X0062298Y0075077D01*
X0067434Y0075077D02*
X0067434Y0071437D01*
X0062298Y0071437D01*
X0062298Y0075077D01*
X0062298Y0072650D02*
X0067434Y0072650D01*
X0067434Y0073863D02*
X0062298Y0073863D01*
X0062298Y0075076D02*
X0067434Y0075076D01*
X0067434Y0081376D02*
X0062298Y0081376D01*
X0067434Y0081376D02*
X0067434Y0077736D01*
X0062298Y0077736D01*
X0062298Y0081376D01*
X0062298Y0078949D02*
X0067434Y0078949D01*
X0067434Y0080162D02*
X0062298Y0080162D01*
X0062298Y0081375D02*
X0067434Y0081375D01*
X0067434Y0087675D02*
X0062298Y0087675D01*
X0067434Y0087675D02*
X0067434Y0084035D01*
X0062298Y0084035D01*
X0062298Y0087675D01*
X0062298Y0085248D02*
X0067434Y0085248D01*
X0067434Y0086461D02*
X0062298Y0086461D01*
X0062298Y0087674D02*
X0067434Y0087674D01*
X0071944Y0085216D02*
X0077080Y0085216D01*
X0071944Y0085216D02*
X0071944Y0088856D01*
X0077080Y0088856D01*
X0077080Y0085216D01*
X0077080Y0086429D02*
X0071944Y0086429D01*
X0071944Y0087642D02*
X0077080Y0087642D01*
X0077080Y0088855D02*
X0071944Y0088855D01*
X0071944Y0091515D02*
X0077080Y0091515D01*
X0071944Y0091515D02*
X0071944Y0095155D01*
X0077080Y0095155D01*
X0077080Y0091515D01*
X0077080Y0092728D02*
X0071944Y0092728D01*
X0071944Y0093941D02*
X0077080Y0093941D01*
X0077080Y0095154D02*
X0071944Y0095154D01*
X0071944Y0097815D02*
X0077080Y0097815D01*
X0071944Y0097815D02*
X0071944Y0101455D01*
X0077080Y0101455D01*
X0077080Y0097815D01*
X0077080Y0099028D02*
X0071944Y0099028D01*
X0071944Y0100241D02*
X0077080Y0100241D01*
X0077080Y0101454D02*
X0071944Y0101454D01*
X0067434Y0098996D02*
X0062298Y0098996D01*
X0062298Y0102636D01*
X0067434Y0102636D01*
X0067434Y0098996D01*
X0067434Y0100209D02*
X0062298Y0100209D01*
X0062298Y0101422D02*
X0067434Y0101422D01*
X0067434Y0102635D02*
X0062298Y0102635D01*
X0062298Y0105295D02*
X0067434Y0105295D01*
X0062298Y0105295D02*
X0062298Y0108935D01*
X0067434Y0108935D01*
X0067434Y0105295D01*
X0067434Y0106508D02*
X0062298Y0106508D01*
X0062298Y0107721D02*
X0067434Y0107721D01*
X0067434Y0108934D02*
X0062298Y0108934D01*
X0062298Y0111594D02*
X0067434Y0111594D01*
X0062298Y0111594D02*
X0062298Y0115234D01*
X0067434Y0115234D01*
X0067434Y0111594D01*
X0067434Y0112807D02*
X0062298Y0112807D01*
X0062298Y0114020D02*
X0067434Y0114020D01*
X0067434Y0115233D02*
X0062298Y0115233D01*
X0071944Y0116415D02*
X0077080Y0116415D01*
X0077080Y0112775D01*
X0071944Y0112775D01*
X0071944Y0116415D01*
X0071944Y0113988D02*
X0077080Y0113988D01*
X0077080Y0115201D02*
X0071944Y0115201D01*
X0071944Y0116414D02*
X0077080Y0116414D01*
X0077080Y0122714D02*
X0071944Y0122714D01*
X0077080Y0122714D02*
X0077080Y0119074D01*
X0071944Y0119074D01*
X0071944Y0122714D01*
X0071944Y0120287D02*
X0077080Y0120287D01*
X0077080Y0121500D02*
X0071944Y0121500D01*
X0071944Y0122713D02*
X0077080Y0122713D01*
X0077080Y0129014D02*
X0071944Y0129014D01*
X0077080Y0129014D02*
X0077080Y0125374D01*
X0071944Y0125374D01*
X0071944Y0129014D01*
X0071944Y0126587D02*
X0077080Y0126587D01*
X0077080Y0127800D02*
X0071944Y0127800D01*
X0071944Y0129013D02*
X0077080Y0129013D01*
X0067434Y0130195D02*
X0062298Y0130195D01*
X0067434Y0130195D02*
X0067434Y0126555D01*
X0062298Y0126555D01*
X0062298Y0130195D01*
X0062298Y0127768D02*
X0067434Y0127768D01*
X0067434Y0128981D02*
X0062298Y0128981D01*
X0062298Y0130194D02*
X0067434Y0130194D01*
X0067434Y0136494D02*
X0062298Y0136494D01*
X0067434Y0136494D02*
X0067434Y0132854D01*
X0062298Y0132854D01*
X0062298Y0136494D01*
X0062298Y0134067D02*
X0067434Y0134067D01*
X0067434Y0135280D02*
X0062298Y0135280D01*
X0062298Y0136493D02*
X0067434Y0136493D01*
X0067434Y0142793D02*
X0062298Y0142793D01*
X0067434Y0142793D02*
X0067434Y0139153D01*
X0062298Y0139153D01*
X0062298Y0142793D01*
X0062298Y0140366D02*
X0067434Y0140366D01*
X0067434Y0141579D02*
X0062298Y0141579D01*
X0062298Y0142792D02*
X0067434Y0142792D01*
X0071944Y0141319D02*
X0077080Y0141319D01*
X0071944Y0141319D02*
X0071944Y0144959D01*
X0077080Y0144959D01*
X0077080Y0141319D01*
X0077080Y0142532D02*
X0071944Y0142532D01*
X0071944Y0143745D02*
X0077080Y0143745D01*
X0077080Y0144958D02*
X0071944Y0144958D01*
X0071944Y0147618D02*
X0077080Y0147618D01*
X0071944Y0147618D02*
X0071944Y0151258D01*
X0077080Y0151258D01*
X0077080Y0147618D01*
X0077080Y0148831D02*
X0071944Y0148831D01*
X0071944Y0150044D02*
X0077080Y0150044D01*
X0077080Y0151257D02*
X0071944Y0151257D01*
X0071944Y0153917D02*
X0077080Y0153917D01*
X0071944Y0153917D02*
X0071944Y0157557D01*
X0077080Y0157557D01*
X0077080Y0153917D01*
X0077080Y0155130D02*
X0071944Y0155130D01*
X0071944Y0156343D02*
X0077080Y0156343D01*
X0077080Y0157556D02*
X0071944Y0157556D01*
X0067434Y0154114D02*
X0062298Y0154114D01*
X0062298Y0157754D01*
X0067434Y0157754D01*
X0067434Y0154114D01*
X0067434Y0155327D02*
X0062298Y0155327D01*
X0062298Y0156540D02*
X0067434Y0156540D01*
X0067434Y0157753D02*
X0062298Y0157753D01*
X0062298Y0160413D02*
X0067434Y0160413D01*
X0062298Y0160413D02*
X0062298Y0164053D01*
X0067434Y0164053D01*
X0067434Y0160413D01*
X0067434Y0161626D02*
X0062298Y0161626D01*
X0062298Y0162839D02*
X0067434Y0162839D01*
X0067434Y0164052D02*
X0062298Y0164052D01*
X0062298Y0166712D02*
X0067434Y0166712D01*
X0062298Y0166712D02*
X0062298Y0170352D01*
X0067434Y0170352D01*
X0067434Y0166712D01*
X0067434Y0167925D02*
X0062298Y0167925D01*
X0062298Y0169138D02*
X0067434Y0169138D01*
X0067434Y0170351D02*
X0062298Y0170351D01*
X0050505Y0166712D02*
X0045369Y0166712D01*
X0045369Y0170352D01*
X0050505Y0170352D01*
X0050505Y0166712D01*
X0050505Y0167925D02*
X0045369Y0167925D01*
X0045369Y0169138D02*
X0050505Y0169138D01*
X0050505Y0170351D02*
X0045369Y0170351D01*
X0045369Y0160413D02*
X0050505Y0160413D01*
X0045369Y0160413D02*
X0045369Y0164053D01*
X0050505Y0164053D01*
X0050505Y0160413D01*
X0050505Y0161626D02*
X0045369Y0161626D01*
X0045369Y0162839D02*
X0050505Y0162839D01*
X0050505Y0164052D02*
X0045369Y0164052D01*
X0045369Y0154114D02*
X0050505Y0154114D01*
X0045369Y0154114D02*
X0045369Y0157754D01*
X0050505Y0157754D01*
X0050505Y0154114D01*
X0050505Y0155327D02*
X0045369Y0155327D01*
X0045369Y0156540D02*
X0050505Y0156540D01*
X0050505Y0157753D02*
X0045369Y0157753D01*
X0045369Y0142793D02*
X0050505Y0142793D01*
X0050505Y0139153D01*
X0045369Y0139153D01*
X0045369Y0142793D01*
X0045369Y0140366D02*
X0050505Y0140366D01*
X0050505Y0141579D02*
X0045369Y0141579D01*
X0045369Y0142792D02*
X0050505Y0142792D01*
X0050505Y0136494D02*
X0045369Y0136494D01*
X0050505Y0136494D02*
X0050505Y0132854D01*
X0045369Y0132854D01*
X0045369Y0136494D01*
X0045369Y0134067D02*
X0050505Y0134067D01*
X0050505Y0135280D02*
X0045369Y0135280D01*
X0045369Y0136493D02*
X0050505Y0136493D01*
X0050505Y0130195D02*
X0045369Y0130195D01*
X0050505Y0130195D02*
X0050505Y0126555D01*
X0045369Y0126555D01*
X0045369Y0130195D01*
X0045369Y0127768D02*
X0050505Y0127768D01*
X0050505Y0128981D02*
X0045369Y0128981D01*
X0045369Y0130194D02*
X0050505Y0130194D01*
X0050505Y0111594D02*
X0045369Y0111594D01*
X0045369Y0115234D01*
X0050505Y0115234D01*
X0050505Y0111594D01*
X0050505Y0112807D02*
X0045369Y0112807D01*
X0045369Y0114020D02*
X0050505Y0114020D01*
X0050505Y0115233D02*
X0045369Y0115233D01*
X0045369Y0105295D02*
X0050505Y0105295D01*
X0045369Y0105295D02*
X0045369Y0108935D01*
X0050505Y0108935D01*
X0050505Y0105295D01*
X0050505Y0106508D02*
X0045369Y0106508D01*
X0045369Y0107721D02*
X0050505Y0107721D01*
X0050505Y0108934D02*
X0045369Y0108934D01*
X0045369Y0098996D02*
X0050505Y0098996D01*
X0045369Y0098996D02*
X0045369Y0102636D01*
X0050505Y0102636D01*
X0050505Y0098996D01*
X0050505Y0100209D02*
X0045369Y0100209D01*
X0045369Y0101422D02*
X0050505Y0101422D01*
X0050505Y0102635D02*
X0045369Y0102635D01*
X0045369Y0087675D02*
X0050505Y0087675D01*
X0050505Y0084035D01*
X0045369Y0084035D01*
X0045369Y0087675D01*
X0045369Y0085248D02*
X0050505Y0085248D01*
X0050505Y0086461D02*
X0045369Y0086461D01*
X0045369Y0087674D02*
X0050505Y0087674D01*
X0050505Y0081376D02*
X0045369Y0081376D01*
X0050505Y0081376D02*
X0050505Y0077736D01*
X0045369Y0077736D01*
X0045369Y0081376D01*
X0045369Y0078949D02*
X0050505Y0078949D01*
X0050505Y0080162D02*
X0045369Y0080162D01*
X0045369Y0081375D02*
X0050505Y0081375D01*
X0050505Y0075077D02*
X0045369Y0075077D01*
X0050505Y0075077D02*
X0050505Y0071437D01*
X0045369Y0071437D01*
X0045369Y0075077D01*
X0045369Y0072650D02*
X0050505Y0072650D01*
X0050505Y0073863D02*
X0045369Y0073863D01*
X0045369Y0075076D02*
X0050505Y0075076D01*
X0050505Y0056476D02*
X0045369Y0056476D01*
X0045369Y0060116D01*
X0050505Y0060116D01*
X0050505Y0056476D01*
X0050505Y0057689D02*
X0045369Y0057689D01*
X0045369Y0058902D02*
X0050505Y0058902D01*
X0050505Y0060115D02*
X0045369Y0060115D01*
X0045369Y0050177D02*
X0050505Y0050177D01*
X0045369Y0050177D02*
X0045369Y0053817D01*
X0050505Y0053817D01*
X0050505Y0050177D01*
X0050505Y0051390D02*
X0045369Y0051390D01*
X0045369Y0052603D02*
X0050505Y0052603D01*
X0050505Y0053816D02*
X0045369Y0053816D01*
X0045369Y0043878D02*
X0050505Y0043878D01*
X0045369Y0043878D02*
X0045369Y0047518D01*
X0050505Y0047518D01*
X0050505Y0043878D01*
X0050505Y0045091D02*
X0045369Y0045091D01*
X0045369Y0046304D02*
X0050505Y0046304D01*
X0050505Y0047517D02*
X0045369Y0047517D01*
X0088873Y0042697D02*
X0094009Y0042697D01*
X0088873Y0042697D02*
X0088873Y0046337D01*
X0094009Y0046337D01*
X0094009Y0042697D01*
X0094009Y0043910D02*
X0088873Y0043910D01*
X0088873Y0045123D02*
X0094009Y0045123D01*
X0094009Y0046336D02*
X0088873Y0046336D01*
X0088873Y0036397D02*
X0094009Y0036397D01*
X0088873Y0036397D02*
X0088873Y0040037D01*
X0094009Y0040037D01*
X0094009Y0036397D01*
X0094009Y0037610D02*
X0088873Y0037610D01*
X0088873Y0038823D02*
X0094009Y0038823D01*
X0094009Y0040036D02*
X0088873Y0040036D01*
X0098519Y0036397D02*
X0103655Y0036397D01*
X0098519Y0036397D02*
X0098519Y0040037D01*
X0103655Y0040037D01*
X0103655Y0036397D01*
X0103655Y0037610D02*
X0098519Y0037610D01*
X0098519Y0038823D02*
X0103655Y0038823D01*
X0103655Y0040036D02*
X0098519Y0040036D01*
X0098519Y0042697D02*
X0103655Y0042697D01*
X0098519Y0042697D02*
X0098519Y0046337D01*
X0103655Y0046337D01*
X0103655Y0042697D01*
X0103655Y0043910D02*
X0098519Y0043910D01*
X0098519Y0045123D02*
X0103655Y0045123D01*
X0103655Y0046336D02*
X0098519Y0046336D01*
X0115448Y0042697D02*
X0120584Y0042697D01*
X0115448Y0042697D02*
X0115448Y0046337D01*
X0120584Y0046337D01*
X0120584Y0042697D01*
X0120584Y0043910D02*
X0115448Y0043910D01*
X0115448Y0045123D02*
X0120584Y0045123D01*
X0120584Y0046336D02*
X0115448Y0046336D01*
X0115448Y0036397D02*
X0120584Y0036397D01*
X0115448Y0036397D02*
X0115448Y0040037D01*
X0120584Y0040037D01*
X0120584Y0036397D01*
X0120584Y0037610D02*
X0115448Y0037610D01*
X0115448Y0038823D02*
X0120584Y0038823D01*
X0120584Y0040036D02*
X0115448Y0040036D01*
X0125093Y0043878D02*
X0130229Y0043878D01*
X0125093Y0043878D02*
X0125093Y0047518D01*
X0130229Y0047518D01*
X0130229Y0043878D01*
X0130229Y0045091D02*
X0125093Y0045091D01*
X0125093Y0046304D02*
X0130229Y0046304D01*
X0130229Y0047517D02*
X0125093Y0047517D01*
X0125093Y0050177D02*
X0130229Y0050177D01*
X0125093Y0050177D02*
X0125093Y0053817D01*
X0130229Y0053817D01*
X0130229Y0050177D01*
X0130229Y0051390D02*
X0125093Y0051390D01*
X0125093Y0052603D02*
X0130229Y0052603D01*
X0130229Y0053816D02*
X0125093Y0053816D01*
X0125093Y0056476D02*
X0130229Y0056476D01*
X0125093Y0056476D02*
X0125093Y0060116D01*
X0130229Y0060116D01*
X0130229Y0056476D01*
X0130229Y0057689D02*
X0125093Y0057689D01*
X0125093Y0058902D02*
X0130229Y0058902D01*
X0130229Y0060115D02*
X0125093Y0060115D01*
X0120584Y0061297D02*
X0115448Y0061297D01*
X0120584Y0061297D02*
X0120584Y0057657D01*
X0115448Y0057657D01*
X0115448Y0061297D01*
X0115448Y0058870D02*
X0120584Y0058870D01*
X0120584Y0060083D02*
X0115448Y0060083D01*
X0115448Y0061296D02*
X0120584Y0061296D01*
X0120584Y0067596D02*
X0115448Y0067596D01*
X0120584Y0067596D02*
X0120584Y0063956D01*
X0115448Y0063956D01*
X0115448Y0067596D01*
X0115448Y0065169D02*
X0120584Y0065169D01*
X0120584Y0066382D02*
X0115448Y0066382D01*
X0115448Y0067595D02*
X0120584Y0067595D01*
X0120584Y0073896D02*
X0115448Y0073896D01*
X0120584Y0073896D02*
X0120584Y0070256D01*
X0115448Y0070256D01*
X0115448Y0073896D01*
X0115448Y0071469D02*
X0120584Y0071469D01*
X0120584Y0072682D02*
X0115448Y0072682D01*
X0115448Y0073895D02*
X0120584Y0073895D01*
X0125093Y0075077D02*
X0130229Y0075077D01*
X0130229Y0071437D01*
X0125093Y0071437D01*
X0125093Y0075077D01*
X0125093Y0072650D02*
X0130229Y0072650D01*
X0130229Y0073863D02*
X0125093Y0073863D01*
X0125093Y0075076D02*
X0130229Y0075076D01*
X0130229Y0081376D02*
X0125093Y0081376D01*
X0130229Y0081376D02*
X0130229Y0077736D01*
X0125093Y0077736D01*
X0125093Y0081376D01*
X0125093Y0078949D02*
X0130229Y0078949D01*
X0130229Y0080162D02*
X0125093Y0080162D01*
X0125093Y0081375D02*
X0130229Y0081375D01*
X0130229Y0087675D02*
X0125093Y0087675D01*
X0130229Y0087675D02*
X0130229Y0084035D01*
X0125093Y0084035D01*
X0125093Y0087675D01*
X0125093Y0085248D02*
X0130229Y0085248D01*
X0130229Y0086461D02*
X0125093Y0086461D01*
X0125093Y0087674D02*
X0130229Y0087674D01*
X0120584Y0085216D02*
X0115448Y0085216D01*
X0115448Y0088856D01*
X0120584Y0088856D01*
X0120584Y0085216D01*
X0120584Y0086429D02*
X0115448Y0086429D01*
X0115448Y0087642D02*
X0120584Y0087642D01*
X0120584Y0088855D02*
X0115448Y0088855D01*
X0115448Y0091515D02*
X0120584Y0091515D01*
X0115448Y0091515D02*
X0115448Y0095155D01*
X0120584Y0095155D01*
X0120584Y0091515D01*
X0120584Y0092728D02*
X0115448Y0092728D01*
X0115448Y0093941D02*
X0120584Y0093941D01*
X0120584Y0095154D02*
X0115448Y0095154D01*
X0115448Y0097815D02*
X0120584Y0097815D01*
X0115448Y0097815D02*
X0115448Y0101455D01*
X0120584Y0101455D01*
X0120584Y0097815D01*
X0120584Y0099028D02*
X0115448Y0099028D01*
X0115448Y0100241D02*
X0120584Y0100241D01*
X0120584Y0101454D02*
X0115448Y0101454D01*
X0125093Y0098996D02*
X0130229Y0098996D01*
X0125093Y0098996D02*
X0125093Y0102636D01*
X0130229Y0102636D01*
X0130229Y0098996D01*
X0130229Y0100209D02*
X0125093Y0100209D01*
X0125093Y0101422D02*
X0130229Y0101422D01*
X0130229Y0102635D02*
X0125093Y0102635D01*
X0125093Y0105295D02*
X0130229Y0105295D01*
X0125093Y0105295D02*
X0125093Y0108935D01*
X0130229Y0108935D01*
X0130229Y0105295D01*
X0130229Y0106508D02*
X0125093Y0106508D01*
X0125093Y0107721D02*
X0130229Y0107721D01*
X0130229Y0108934D02*
X0125093Y0108934D01*
X0125093Y0111594D02*
X0130229Y0111594D01*
X0125093Y0111594D02*
X0125093Y0115234D01*
X0130229Y0115234D01*
X0130229Y0111594D01*
X0130229Y0112807D02*
X0125093Y0112807D01*
X0125093Y0114020D02*
X0130229Y0114020D01*
X0130229Y0115233D02*
X0125093Y0115233D01*
X0120584Y0116415D02*
X0115448Y0116415D01*
X0120584Y0116415D02*
X0120584Y0112775D01*
X0115448Y0112775D01*
X0115448Y0116415D01*
X0115448Y0113988D02*
X0120584Y0113988D01*
X0120584Y0115201D02*
X0115448Y0115201D01*
X0115448Y0116414D02*
X0120584Y0116414D01*
X0120584Y0122714D02*
X0115448Y0122714D01*
X0120584Y0122714D02*
X0120584Y0119074D01*
X0115448Y0119074D01*
X0115448Y0122714D01*
X0115448Y0120287D02*
X0120584Y0120287D01*
X0120584Y0121500D02*
X0115448Y0121500D01*
X0115448Y0122713D02*
X0120584Y0122713D01*
X0120584Y0129014D02*
X0115448Y0129014D01*
X0120584Y0129014D02*
X0120584Y0125374D01*
X0115448Y0125374D01*
X0115448Y0129014D01*
X0115448Y0126587D02*
X0120584Y0126587D01*
X0120584Y0127800D02*
X0115448Y0127800D01*
X0115448Y0129013D02*
X0120584Y0129013D01*
X0125093Y0130195D02*
X0130229Y0130195D01*
X0130229Y0126555D01*
X0125093Y0126555D01*
X0125093Y0130195D01*
X0125093Y0127768D02*
X0130229Y0127768D01*
X0130229Y0128981D02*
X0125093Y0128981D01*
X0125093Y0130194D02*
X0130229Y0130194D01*
X0130229Y0136494D02*
X0125093Y0136494D01*
X0130229Y0136494D02*
X0130229Y0132854D01*
X0125093Y0132854D01*
X0125093Y0136494D01*
X0125093Y0134067D02*
X0130229Y0134067D01*
X0130229Y0135280D02*
X0125093Y0135280D01*
X0125093Y0136493D02*
X0130229Y0136493D01*
X0130229Y0142793D02*
X0125093Y0142793D01*
X0130229Y0142793D02*
X0130229Y0139153D01*
X0125093Y0139153D01*
X0125093Y0142793D01*
X0125093Y0140366D02*
X0130229Y0140366D01*
X0130229Y0141579D02*
X0125093Y0141579D01*
X0125093Y0142792D02*
X0130229Y0142792D01*
X0120584Y0141319D02*
X0115448Y0141319D01*
X0115448Y0144959D01*
X0120584Y0144959D01*
X0120584Y0141319D01*
X0120584Y0142532D02*
X0115448Y0142532D01*
X0115448Y0143745D02*
X0120584Y0143745D01*
X0120584Y0144958D02*
X0115448Y0144958D01*
X0115448Y0147618D02*
X0120584Y0147618D01*
X0115448Y0147618D02*
X0115448Y0151258D01*
X0120584Y0151258D01*
X0120584Y0147618D01*
X0120584Y0148831D02*
X0115448Y0148831D01*
X0115448Y0150044D02*
X0120584Y0150044D01*
X0120584Y0151257D02*
X0115448Y0151257D01*
X0115448Y0153917D02*
X0120584Y0153917D01*
X0115448Y0153917D02*
X0115448Y0157557D01*
X0120584Y0157557D01*
X0120584Y0153917D01*
X0120584Y0155130D02*
X0115448Y0155130D01*
X0115448Y0156343D02*
X0120584Y0156343D01*
X0120584Y0157556D02*
X0115448Y0157556D01*
X0125093Y0154114D02*
X0130229Y0154114D01*
X0125093Y0154114D02*
X0125093Y0157754D01*
X0130229Y0157754D01*
X0130229Y0154114D01*
X0130229Y0155327D02*
X0125093Y0155327D01*
X0125093Y0156540D02*
X0130229Y0156540D01*
X0130229Y0157753D02*
X0125093Y0157753D01*
X0125093Y0160413D02*
X0130229Y0160413D01*
X0125093Y0160413D02*
X0125093Y0164053D01*
X0130229Y0164053D01*
X0130229Y0160413D01*
X0130229Y0161626D02*
X0125093Y0161626D01*
X0125093Y0162839D02*
X0130229Y0162839D01*
X0130229Y0164052D02*
X0125093Y0164052D01*
X0125093Y0166712D02*
X0130229Y0166712D01*
X0125093Y0166712D02*
X0125093Y0170352D01*
X0130229Y0170352D01*
X0130229Y0166712D01*
X0130229Y0167925D02*
X0125093Y0167925D01*
X0125093Y0169138D02*
X0130229Y0169138D01*
X0130229Y0170351D02*
X0125093Y0170351D01*
X0142023Y0166712D02*
X0147159Y0166712D01*
X0142023Y0166712D02*
X0142023Y0170352D01*
X0147159Y0170352D01*
X0147159Y0166712D01*
X0147159Y0167925D02*
X0142023Y0167925D01*
X0142023Y0169138D02*
X0147159Y0169138D01*
X0147159Y0170351D02*
X0142023Y0170351D01*
X0142023Y0160413D02*
X0147159Y0160413D01*
X0142023Y0160413D02*
X0142023Y0164053D01*
X0147159Y0164053D01*
X0147159Y0160413D01*
X0147159Y0161626D02*
X0142023Y0161626D01*
X0142023Y0162839D02*
X0147159Y0162839D01*
X0147159Y0164052D02*
X0142023Y0164052D01*
X0142023Y0154114D02*
X0147159Y0154114D01*
X0142023Y0154114D02*
X0142023Y0157754D01*
X0147159Y0157754D01*
X0147159Y0154114D01*
X0147159Y0155327D02*
X0142023Y0155327D01*
X0142023Y0156540D02*
X0147159Y0156540D01*
X0147159Y0157753D02*
X0142023Y0157753D01*
X0142023Y0142793D02*
X0147159Y0142793D01*
X0147159Y0139153D01*
X0142023Y0139153D01*
X0142023Y0142793D01*
X0142023Y0140366D02*
X0147159Y0140366D01*
X0147159Y0141579D02*
X0142023Y0141579D01*
X0142023Y0142792D02*
X0147159Y0142792D01*
X0147159Y0136494D02*
X0142023Y0136494D01*
X0147159Y0136494D02*
X0147159Y0132854D01*
X0142023Y0132854D01*
X0142023Y0136494D01*
X0142023Y0134067D02*
X0147159Y0134067D01*
X0147159Y0135280D02*
X0142023Y0135280D01*
X0142023Y0136493D02*
X0147159Y0136493D01*
X0147159Y0130195D02*
X0142023Y0130195D01*
X0147159Y0130195D02*
X0147159Y0126555D01*
X0142023Y0126555D01*
X0142023Y0130195D01*
X0142023Y0127768D02*
X0147159Y0127768D01*
X0147159Y0128981D02*
X0142023Y0128981D01*
X0142023Y0130194D02*
X0147159Y0130194D01*
X0147159Y0111594D02*
X0142023Y0111594D01*
X0142023Y0115234D01*
X0147159Y0115234D01*
X0147159Y0111594D01*
X0147159Y0112807D02*
X0142023Y0112807D01*
X0142023Y0114020D02*
X0147159Y0114020D01*
X0147159Y0115233D02*
X0142023Y0115233D01*
X0142023Y0105295D02*
X0147159Y0105295D01*
X0142023Y0105295D02*
X0142023Y0108935D01*
X0147159Y0108935D01*
X0147159Y0105295D01*
X0147159Y0106508D02*
X0142023Y0106508D01*
X0142023Y0107721D02*
X0147159Y0107721D01*
X0147159Y0108934D02*
X0142023Y0108934D01*
X0142023Y0098996D02*
X0147159Y0098996D01*
X0142023Y0098996D02*
X0142023Y0102636D01*
X0147159Y0102636D01*
X0147159Y0098996D01*
X0147159Y0100209D02*
X0142023Y0100209D01*
X0142023Y0101422D02*
X0147159Y0101422D01*
X0147159Y0102635D02*
X0142023Y0102635D01*
X0142023Y0087675D02*
X0147159Y0087675D01*
X0147159Y0084035D01*
X0142023Y0084035D01*
X0142023Y0087675D01*
X0142023Y0085248D02*
X0147159Y0085248D01*
X0147159Y0086461D02*
X0142023Y0086461D01*
X0142023Y0087674D02*
X0147159Y0087674D01*
X0147159Y0081376D02*
X0142023Y0081376D01*
X0147159Y0081376D02*
X0147159Y0077736D01*
X0142023Y0077736D01*
X0142023Y0081376D01*
X0142023Y0078949D02*
X0147159Y0078949D01*
X0147159Y0080162D02*
X0142023Y0080162D01*
X0142023Y0081375D02*
X0147159Y0081375D01*
X0147159Y0075077D02*
X0142023Y0075077D01*
X0147159Y0075077D02*
X0147159Y0071437D01*
X0142023Y0071437D01*
X0142023Y0075077D01*
X0142023Y0072650D02*
X0147159Y0072650D01*
X0147159Y0073863D02*
X0142023Y0073863D01*
X0142023Y0075076D02*
X0147159Y0075076D01*
X0147159Y0056476D02*
X0142023Y0056476D01*
X0142023Y0060116D01*
X0147159Y0060116D01*
X0147159Y0056476D01*
X0147159Y0057689D02*
X0142023Y0057689D01*
X0142023Y0058902D02*
X0147159Y0058902D01*
X0147159Y0060115D02*
X0142023Y0060115D01*
X0142023Y0050177D02*
X0147159Y0050177D01*
X0142023Y0050177D02*
X0142023Y0053817D01*
X0147159Y0053817D01*
X0147159Y0050177D01*
X0147159Y0051390D02*
X0142023Y0051390D01*
X0142023Y0052603D02*
X0147159Y0052603D01*
X0147159Y0053816D02*
X0142023Y0053816D01*
X0142023Y0043878D02*
X0147159Y0043878D01*
X0142023Y0043878D02*
X0142023Y0047518D01*
X0147159Y0047518D01*
X0147159Y0043878D01*
X0147159Y0045091D02*
X0142023Y0045091D01*
X0142023Y0046304D02*
X0147159Y0046304D01*
X0147159Y0047517D02*
X0142023Y0047517D01*
X0120584Y0030098D02*
X0115448Y0030098D01*
X0115448Y0033738D01*
X0120584Y0033738D01*
X0120584Y0030098D01*
X0120584Y0031311D02*
X0115448Y0031311D01*
X0115448Y0032524D02*
X0120584Y0032524D01*
X0120584Y0033737D02*
X0115448Y0033737D01*
X0103655Y0030098D02*
X0098519Y0030098D01*
X0098519Y0033738D01*
X0103655Y0033738D01*
X0103655Y0030098D01*
X0103655Y0031311D02*
X0098519Y0031311D01*
X0098519Y0032524D02*
X0103655Y0032524D01*
X0103655Y0033737D02*
X0098519Y0033737D01*
X0094009Y0030098D02*
X0088873Y0030098D01*
X0088873Y0033738D01*
X0094009Y0033738D01*
X0094009Y0030098D01*
X0094009Y0031311D02*
X0088873Y0031311D01*
X0088873Y0032524D02*
X0094009Y0032524D01*
X0094009Y0033737D02*
X0088873Y0033737D01*
X0088873Y0061297D02*
X0094009Y0061297D01*
X0094009Y0057657D01*
X0088873Y0057657D01*
X0088873Y0061297D01*
X0088873Y0058870D02*
X0094009Y0058870D01*
X0094009Y0060083D02*
X0088873Y0060083D01*
X0088873Y0061296D02*
X0094009Y0061296D01*
X0098519Y0061297D02*
X0103655Y0061297D01*
X0103655Y0057657D01*
X0098519Y0057657D01*
X0098519Y0061297D01*
X0098519Y0058870D02*
X0103655Y0058870D01*
X0103655Y0060083D02*
X0098519Y0060083D01*
X0098519Y0061296D02*
X0103655Y0061296D01*
X0103655Y0067596D02*
X0098519Y0067596D01*
X0103655Y0067596D02*
X0103655Y0063956D01*
X0098519Y0063956D01*
X0098519Y0067596D01*
X0098519Y0065169D02*
X0103655Y0065169D01*
X0103655Y0066382D02*
X0098519Y0066382D01*
X0098519Y0067595D02*
X0103655Y0067595D01*
X0103655Y0073896D02*
X0098519Y0073896D01*
X0103655Y0073896D02*
X0103655Y0070256D01*
X0098519Y0070256D01*
X0098519Y0073896D01*
X0098519Y0071469D02*
X0103655Y0071469D01*
X0103655Y0072682D02*
X0098519Y0072682D01*
X0098519Y0073895D02*
X0103655Y0073895D01*
X0094009Y0073896D02*
X0088873Y0073896D01*
X0094009Y0073896D02*
X0094009Y0070256D01*
X0088873Y0070256D01*
X0088873Y0073896D01*
X0088873Y0071469D02*
X0094009Y0071469D01*
X0094009Y0072682D02*
X0088873Y0072682D01*
X0088873Y0073895D02*
X0094009Y0073895D01*
X0094009Y0067596D02*
X0088873Y0067596D01*
X0094009Y0067596D02*
X0094009Y0063956D01*
X0088873Y0063956D01*
X0088873Y0067596D01*
X0088873Y0065169D02*
X0094009Y0065169D01*
X0094009Y0066382D02*
X0088873Y0066382D01*
X0088873Y0067595D02*
X0094009Y0067595D01*
X0094009Y0085216D02*
X0088873Y0085216D01*
X0088873Y0088856D01*
X0094009Y0088856D01*
X0094009Y0085216D01*
X0094009Y0086429D02*
X0088873Y0086429D01*
X0088873Y0087642D02*
X0094009Y0087642D01*
X0094009Y0088855D02*
X0088873Y0088855D01*
X0088873Y0091515D02*
X0094009Y0091515D01*
X0088873Y0091515D02*
X0088873Y0095155D01*
X0094009Y0095155D01*
X0094009Y0091515D01*
X0094009Y0092728D02*
X0088873Y0092728D01*
X0088873Y0093941D02*
X0094009Y0093941D01*
X0094009Y0095154D02*
X0088873Y0095154D01*
X0088873Y0097815D02*
X0094009Y0097815D01*
X0088873Y0097815D02*
X0088873Y0101455D01*
X0094009Y0101455D01*
X0094009Y0097815D01*
X0094009Y0099028D02*
X0088873Y0099028D01*
X0088873Y0100241D02*
X0094009Y0100241D01*
X0094009Y0101454D02*
X0088873Y0101454D01*
X0098519Y0097815D02*
X0103655Y0097815D01*
X0098519Y0097815D02*
X0098519Y0101455D01*
X0103655Y0101455D01*
X0103655Y0097815D01*
X0103655Y0099028D02*
X0098519Y0099028D01*
X0098519Y0100241D02*
X0103655Y0100241D01*
X0103655Y0101454D02*
X0098519Y0101454D01*
X0098519Y0091515D02*
X0103655Y0091515D01*
X0098519Y0091515D02*
X0098519Y0095155D01*
X0103655Y0095155D01*
X0103655Y0091515D01*
X0103655Y0092728D02*
X0098519Y0092728D01*
X0098519Y0093941D02*
X0103655Y0093941D01*
X0103655Y0095154D02*
X0098519Y0095154D01*
X0098519Y0085216D02*
X0103655Y0085216D01*
X0098519Y0085216D02*
X0098519Y0088856D01*
X0103655Y0088856D01*
X0103655Y0085216D01*
X0103655Y0086429D02*
X0098519Y0086429D01*
X0098519Y0087642D02*
X0103655Y0087642D01*
X0103655Y0088855D02*
X0098519Y0088855D01*
X0098519Y0116415D02*
X0103655Y0116415D01*
X0103655Y0112775D01*
X0098519Y0112775D01*
X0098519Y0116415D01*
X0098519Y0113988D02*
X0103655Y0113988D01*
X0103655Y0115201D02*
X0098519Y0115201D01*
X0098519Y0116414D02*
X0103655Y0116414D01*
X0103655Y0122714D02*
X0098519Y0122714D01*
X0103655Y0122714D02*
X0103655Y0119074D01*
X0098519Y0119074D01*
X0098519Y0122714D01*
X0098519Y0120287D02*
X0103655Y0120287D01*
X0103655Y0121500D02*
X0098519Y0121500D01*
X0098519Y0122713D02*
X0103655Y0122713D01*
X0103655Y0129014D02*
X0098519Y0129014D01*
X0103655Y0129014D02*
X0103655Y0125374D01*
X0098519Y0125374D01*
X0098519Y0129014D01*
X0098519Y0126587D02*
X0103655Y0126587D01*
X0103655Y0127800D02*
X0098519Y0127800D01*
X0098519Y0129013D02*
X0103655Y0129013D01*
X0094009Y0129014D02*
X0088873Y0129014D01*
X0094009Y0129014D02*
X0094009Y0125374D01*
X0088873Y0125374D01*
X0088873Y0129014D01*
X0088873Y0126587D02*
X0094009Y0126587D01*
X0094009Y0127800D02*
X0088873Y0127800D01*
X0088873Y0129013D02*
X0094009Y0129013D01*
X0094009Y0122714D02*
X0088873Y0122714D01*
X0094009Y0122714D02*
X0094009Y0119074D01*
X0088873Y0119074D01*
X0088873Y0122714D01*
X0088873Y0120287D02*
X0094009Y0120287D01*
X0094009Y0121500D02*
X0088873Y0121500D01*
X0088873Y0122713D02*
X0094009Y0122713D01*
X0094009Y0116415D02*
X0088873Y0116415D01*
X0094009Y0116415D02*
X0094009Y0112775D01*
X0088873Y0112775D01*
X0088873Y0116415D01*
X0088873Y0113988D02*
X0094009Y0113988D01*
X0094009Y0115201D02*
X0088873Y0115201D01*
X0088873Y0116414D02*
X0094009Y0116414D01*
X0094009Y0141319D02*
X0088873Y0141319D01*
X0088873Y0144959D01*
X0094009Y0144959D01*
X0094009Y0141319D01*
X0094009Y0142532D02*
X0088873Y0142532D01*
X0088873Y0143745D02*
X0094009Y0143745D01*
X0094009Y0144958D02*
X0088873Y0144958D01*
X0088873Y0147618D02*
X0094009Y0147618D01*
X0088873Y0147618D02*
X0088873Y0151258D01*
X0094009Y0151258D01*
X0094009Y0147618D01*
X0094009Y0148831D02*
X0088873Y0148831D01*
X0088873Y0150044D02*
X0094009Y0150044D01*
X0094009Y0151257D02*
X0088873Y0151257D01*
X0088873Y0153917D02*
X0094009Y0153917D01*
X0088873Y0153917D02*
X0088873Y0157557D01*
X0094009Y0157557D01*
X0094009Y0153917D01*
X0094009Y0155130D02*
X0088873Y0155130D01*
X0088873Y0156343D02*
X0094009Y0156343D01*
X0094009Y0157556D02*
X0088873Y0157556D01*
X0098519Y0153917D02*
X0103655Y0153917D01*
X0098519Y0153917D02*
X0098519Y0157557D01*
X0103655Y0157557D01*
X0103655Y0153917D01*
X0103655Y0155130D02*
X0098519Y0155130D01*
X0098519Y0156343D02*
X0103655Y0156343D01*
X0103655Y0157556D02*
X0098519Y0157556D01*
X0098519Y0147618D02*
X0103655Y0147618D01*
X0098519Y0147618D02*
X0098519Y0151258D01*
X0103655Y0151258D01*
X0103655Y0147618D01*
X0103655Y0148831D02*
X0098519Y0148831D01*
X0098519Y0150044D02*
X0103655Y0150044D01*
X0103655Y0151257D02*
X0098519Y0151257D01*
X0098519Y0141319D02*
X0103655Y0141319D01*
X0098519Y0141319D02*
X0098519Y0144959D01*
X0103655Y0144959D01*
X0103655Y0141319D01*
X0103655Y0142532D02*
X0098519Y0142532D01*
X0098519Y0143745D02*
X0103655Y0143745D01*
X0103655Y0144958D02*
X0098519Y0144958D01*
D11*
X0169743Y0115225D02*
X0175343Y0115225D01*
X0175343Y0105225D02*
X0169743Y0105225D01*
X0169743Y0095225D02*
X0175343Y0095225D01*
X0175343Y0085225D02*
X0169743Y0085225D01*
X0021800Y0085225D02*
X0016200Y0085225D01*
X0016200Y0095225D02*
X0021800Y0095225D01*
X0021800Y0105225D02*
X0016200Y0105225D01*
X0016200Y0115225D02*
X0021800Y0115225D01*
D12*
X0103264Y0178965D03*
D13*
X0089264Y0178965D03*
D14*
X0074563Y0026674D03*
X0091563Y0026674D03*
X0101063Y0026674D03*
X0118063Y0026674D03*
X0127563Y0040174D03*
X0144563Y0040174D03*
X0113189Y0078300D03*
X0117563Y0081674D03*
X0106189Y0078300D03*
X0101189Y0081800D03*
X0091689Y0081800D03*
X0086189Y0078300D03*
X0079689Y0078300D03*
X0074563Y0082174D03*
X0064563Y0090674D03*
X0064563Y0095674D03*
X0048689Y0095800D03*
X0048563Y0090674D03*
X0086689Y0131800D03*
X0079689Y0132300D03*
X0074563Y0137174D03*
X0091063Y0137174D03*
X0101063Y0137174D03*
X0106189Y0132800D03*
X0113189Y0132800D03*
X0118063Y0136674D03*
X0132689Y0145300D03*
X0139689Y0145300D03*
X0144563Y0150174D03*
X0128063Y0150174D03*
X0111063Y0178674D03*
X0064563Y0150674D03*
X0059689Y0146300D03*
X0053189Y0146300D03*
X0048463Y0150874D03*
X0127689Y0095800D03*
X0132689Y0091800D03*
X0139689Y0091800D03*
X0143689Y0095800D03*
X0064689Y0039300D03*
X0048189Y0039300D03*
M02*
